<svg xmlns="http://www.w3.org/2000/svg" xmlns:xlink="http://www.w3.org/1999/xlink" width="1080" zoomAndPan="magnify" viewBox="0 0 810 809.999993" height="1080" preserveAspectRatio="xMidYMid meet" version="1.0"><defs><clipPath id="b2eed612ab"><path d="M 293 190 L 517 190 L 517 512.917969 L 293 512.917969 Z M 293 190 " clip-rule="nonzero"/></clipPath></defs><g clip-path="url(#b2eed612ab)"><path fill="#000000" d="M 294.519531 192.941406 C 296.574219 190.027344 300.601562 189.332031 303.515625 191.390625 L 507.996094 335.742188 C 518.921875 343.457031 518.921875 359.667969 507.996094 367.382812 L 303.515625 511.734375 C 300.601562 513.792969 296.574219 513.097656 294.519531 510.183594 C 292.464844 507.273438 293.160156 503.246094 296.070312 501.191406 L 500.554688 356.835938 C 504.195312 354.261719 504.195312 348.863281 500.554688 346.289062 L 296.070312 201.933594 C 293.160156 199.878906 292.464844 195.851562 294.519531 192.941406 Z M 294.519531 192.941406 " fill-opacity="1" fill-rule="evenodd"/></g></svg>