<svg id="svg" xmlns="http://www.w3.org/2000/svg" xmlns:xlink="http://www.w3.org/1999/xlink" width="400" height="400" viewBox="0, 0, 400,400"><g id="svgg"><path id="path0" d="M150.760 26.843 C 142.439 28.635,135.223 34.535,131.558 42.540 C 130.124 45.672,125.000 74.429,125.000 79.346 C 125.000 79.486,103.291 79.719,76.758 79.865 C 29.889 80.122,28.391 80.176,24.136 81.781 C 14.431 85.440,7.542 91.690,3.193 100.781 L 0.391 106.641 0.168 225.000 C -0.002 314.888,0.169 344.205,0.878 346.875 C 4.100 359.010,12.697 368.043,25.161 372.387 C 31.614 374.636,368.386 374.636,374.839 372.387 C 387.303 368.043,395.900 359.010,399.122 346.875 C 399.831 344.205,400.002 314.888,399.832 225.000 L 399.609 106.641 396.807 100.781 C 392.458 91.690,385.569 85.440,375.864 81.781 C 371.609 80.176,370.111 80.122,323.242 79.865 C 296.709 79.719,275.000 79.486,275.000 79.346 C 275.000 74.379,269.876 45.670,268.423 42.497 C 264.615 34.181,257.041 28.268,248.099 26.630 C 241.431 25.409,156.553 25.594,150.760 26.843 M244.068 50.754 C 246.389 51.636,246.340 51.462,248.699 67.383 L 250.522 79.688 200.000 79.688 L 149.478 79.688 151.301 67.383 C 153.637 51.617,153.635 51.623,155.687 50.797 C 158.079 49.835,241.543 49.794,244.068 50.754 M367.266 104.796 C 370.421 105.852,373.172 108.188,374.684 111.094 C 376.413 114.417,376.283 181.599,374.536 187.554 C 370.565 201.092,358.548 211.836,344.873 214.075 C 342.243 214.506,320.227 214.837,294.020 214.839 L 247.806 214.844 247.536 203.962 C 247.242 192.141,246.800 190.826,241.887 187.158 C 238.507 184.635,161.493 184.635,158.113 187.158 C 153.200 190.826,152.758 192.141,152.464 203.962 L 152.194 214.844 105.980 214.839 C 79.773 214.837,57.757 214.506,55.127 214.075 C 41.452 211.836,29.435 201.092,25.464 187.554 C 23.717 181.599,23.587 114.417,25.316 111.094 C 26.776 108.289,29.547 105.853,32.422 104.849 C 35.887 103.638,363.654 103.586,367.266 104.796 M223.438 226.012 L 223.438 242.649 212.184 248.668 C 205.995 251.979,200.512 254.688,200.000 254.688 C 199.488 254.688,194.005 251.979,187.816 248.668 L 176.563 242.649 176.563 226.012 L 176.563 209.375 200.000 209.375 L 223.438 209.375 223.438 226.012 M28.575 229.809 C 41.337 238.422,46.556 239.063,103.975 239.063 L 152.344 239.063 152.344 244.576 C 152.344 258.137,152.606 258.362,191.797 278.441 C 200.627 282.964,199.197 283.373,227.568 268.214 C 247.152 257.749,247.656 257.156,247.656 244.576 L 247.656 239.063 296.025 239.063 C 353.444 239.063,358.663 238.422,371.425 229.809 C 373.434 228.453,375.236 227.344,375.430 227.344 C 375.623 227.344,375.781 252.956,375.781 284.259 L 375.781 341.175 374.023 343.758 C 373.057 345.178,371.273 347.076,370.060 347.975 L 367.854 349.609 200.000 349.609 L 32.146 349.609 29.940 347.975 C 28.727 347.076,26.943 345.178,25.977 343.758 L 24.219 341.175 24.219 284.259 C 24.219 252.956,24.377 227.344,24.570 227.344 C 24.764 227.344,26.566 228.453,28.575 229.809 " stroke="none" fill="#000000" fill-rule="evenodd"></path></g></svg>