<svg id="svg" xmlns="http://www.w3.org/2000/svg" xmlns:xlink="http://www.w3.org/1999/xlink" width="400" height="400" viewBox="0, 0, 400,400"><g id="svgg"><path id="path0" d="M174.609 1.194 C 11.016 22.509,-58.409 221.685,56.608 339.734 C 162.669 448.591,347.818 403.623,391.731 258.341 C 433.655 119.638,317.885 -17.474,174.609 1.194 M225.781 22.288 C 351.717 41.298,419.414 182.233,354.751 290.785 L 349.826 299.054 343.858 291.129 C 321.814 261.850,289.761 239.167,254.745 228.067 L 246.746 225.531 249.350 223.521 C 309.639 176.959,276.314 80.131,200.000 80.131 C 123.670 80.131,90.349 176.949,150.650 223.521 L 153.254 225.531 145.255 228.067 C 110.238 239.167,77.521 262.351,55.929 291.364 L 50.188 299.077 45.255 290.797 C 7.057 226.671,13.868 142.556,61.876 85.547 C 94.014 47.383,135.059 26.157,187.109 20.783 C 193.397 20.134,217.802 21.084,225.781 22.288 M211.328 101.666 C 249.641 108.383,270.919 152.572,252.660 187.500 C 230.257 230.357,168.314 229.671,146.838 186.328 C 125.031 142.318,162.516 93.108,211.328 101.666 M220.468 241.791 C 265.554 247.742,306.800 273.156,332.011 310.517 C 336.937 317.817,337.523 316.102,326.367 327.053 C 254.850 397.257,145.150 397.257,73.633 327.053 C 62.477 316.102,63.063 317.817,67.989 310.517 C 101.314 261.131,161.495 234.006,220.468 241.791 " stroke="none" fill="#000000" fill-rule="evenodd"></path></g></svg>