<svg xmlns="http://www.w3.org/2000/svg" xmlns:xlink="http://www.w3.org/1999/xlink" width="1366" zoomAndPan="magnify" viewBox="0 0 1024.5 576" height="768" preserveAspectRatio="xMidYMid meet" version="1.0"><defs><clipPath id="1ca2792c98"><path d="M 224.140625 0.140625 L 793.863281 0.140625 L 793.863281 569.863281 L 224.140625 569.863281 Z M 224.140625 0.140625 " clip-rule="nonzero"/></clipPath><clipPath id="09517cec20"><path d="M 454 86 L 706 86 L 706 569.863281 L 454 569.863281 Z M 454 86 " clip-rule="nonzero"/></clipPath></defs><g clip-path="url(#1ca2792c98)"><path fill="#3d5a98" d="M 762.378906 569.820312 C 779.738281 569.820312 793.816406 555.742188 793.816406 538.378906 L 793.816406 31.582031 C 793.816406 14.214844 779.742188 0.140625 762.378906 0.140625 L 255.582031 0.140625 C 238.210938 0.140625 224.140625 14.214844 224.140625 31.582031 L 224.140625 538.378906 C 224.140625 555.742188 238.210938 569.820312 255.582031 569.820312 Z M 762.378906 569.820312 " fill-opacity="1" fill-rule="nonzero"/></g><g clip-path="url(#09517cec20)"><path fill="#ffffff" d="M 617.207031 569.820312 L 617.207031 349.210938 L 691.257812 349.210938 L 702.347656 263.234375 L 617.207031 263.234375 L 617.207031 208.34375 C 617.207031 183.449219 624.121094 166.488281 659.816406 166.488281 L 705.34375 166.464844 L 705.34375 89.570312 C 697.46875 88.523438 670.445312 86.183594 639.003906 86.183594 C 573.363281 86.183594 528.425781 126.25 528.425781 199.828125 L 528.425781 263.234375 L 454.183594 263.234375 L 454.183594 349.210938 L 528.421875 349.210938 L 528.421875 569.820312 Z M 617.207031 569.820312 " fill-opacity="1" fill-rule="nonzero"/></g></svg>