<svg xmlns="http://www.w3.org/2000/svg" xmlns:xlink="http://www.w3.org/1999/xlink" width="1366" zoomAndPan="magnify" viewBox="0 0 1024.5 576" height="768" preserveAspectRatio="xMidYMid meet" version="1.0"><defs><clipPath id="fc9c037864"><path d="M 211.753906 0.140625 L 538 0.140625 L 538 326 L 211.753906 326 Z M 211.753906 0.140625 " clip-rule="nonzero"/></clipPath><clipPath id="7947b99f2c"><path d="M 549 375 L 750 375 L 750 575.859375 L 549 575.859375 Z M 549 375 " clip-rule="nonzero"/></clipPath><clipPath id="66b62aa1fb"><path d="M 737 112 L 812.210938 112 L 812.210938 188 L 737 188 Z M 737 112 " clip-rule="nonzero"/></clipPath></defs><g clip-path="url(#fc9c037864)"><path fill="#4285f4" d="M 537.003906 162.898438 C 537.003906 165.5625 536.9375 168.222656 536.808594 170.878906 C 536.675781 173.539062 536.480469 176.191406 536.21875 178.839844 C 535.960938 181.488281 535.632812 184.128906 535.242188 186.761719 C 534.851562 189.394531 534.398438 192.015625 533.878906 194.628906 C 533.359375 197.238281 532.777344 199.832031 532.128906 202.414062 C 531.484375 204.996094 530.773438 207.5625 530 210.109375 C 529.226562 212.65625 528.394531 215.183594 527.496094 217.6875 C 526.601562 220.195312 525.640625 222.675781 524.625 225.136719 C 523.605469 227.59375 522.527344 230.027344 521.390625 232.433594 C 520.25 234.839844 519.054688 237.214844 517.800781 239.5625 C 516.546875 241.910156 515.234375 244.226562 513.867188 246.507812 C 512.496094 248.792969 511.074219 251.039062 509.597656 253.253906 C 508.117188 255.464844 506.585938 257.640625 505 259.777344 C 503.414062 261.917969 501.777344 264.015625 500.089844 266.070312 C 498.402344 268.128906 496.664062 270.144531 494.875 272.117188 C 493.089844 274.085938 491.253906 276.015625 489.371094 277.898438 C 487.488281 279.777344 485.5625 281.613281 483.589844 283.402344 C 481.617188 285.1875 479.605469 286.925781 477.546875 288.613281 C 475.488281 290.304688 473.390625 291.941406 471.253906 293.527344 C 469.117188 295.109375 466.941406 296.644531 464.726562 298.121094 C 462.515625 299.601562 460.265625 301.023438 457.984375 302.390625 C 455.703125 303.761719 453.386719 305.070312 451.039062 306.328125 C 448.691406 307.582031 446.316406 308.777344 443.910156 309.914062 C 441.503906 311.054688 439.070312 312.132812 436.613281 313.152344 C 434.152344 314.167969 431.671875 315.125 429.164062 316.023438 C 426.660156 316.917969 424.132812 317.753906 421.585938 318.527344 C 419.039062 319.300781 416.476562 320.007812 413.894531 320.65625 C 411.3125 321.304688 408.714844 321.886719 406.105469 322.40625 C 403.496094 322.925781 400.875 323.378906 398.242188 323.769531 C 395.609375 324.160156 392.96875 324.484375 390.320312 324.746094 C 387.671875 325.007812 385.015625 325.203125 382.359375 325.335938 C 379.699219 325.464844 377.039062 325.53125 374.378906 325.53125 C 371.71875 325.53125 369.058594 325.464844 366.398438 325.335938 C 363.742188 325.203125 361.089844 325.007812 358.4375 324.746094 C 355.789062 324.484375 353.148438 324.160156 350.515625 323.769531 C 347.882812 323.378906 345.261719 322.925781 342.652344 322.40625 C 340.042969 321.886719 337.445312 321.304688 334.863281 320.65625 C 332.285156 320.007812 329.71875 319.300781 327.171875 318.527344 C 324.625 317.753906 322.097656 316.917969 319.59375 316.023438 C 317.085938 315.125 314.605469 314.167969 312.144531 313.152344 C 309.6875 312.132812 307.253906 311.054688 304.847656 309.914062 C 302.441406 308.777344 300.066406 307.582031 297.71875 306.328125 C 295.371094 305.070312 293.058594 303.761719 290.773438 302.390625 C 288.492188 301.023438 286.242188 299.601562 284.03125 298.121094 C 281.816406 296.644531 279.640625 295.109375 277.503906 293.527344 C 275.367188 291.941406 273.269531 290.304688 271.210938 288.613281 C 269.15625 286.925781 267.140625 285.1875 265.167969 283.402344 C 263.195312 281.613281 261.269531 279.777344 259.386719 277.898438 C 257.503906 276.015625 255.671875 274.085938 253.882812 272.117188 C 252.09375 270.144531 250.359375 268.128906 248.667969 266.070312 C 246.980469 264.015625 245.34375 261.917969 243.757812 259.777344 C 242.171875 257.640625 240.640625 255.464844 239.164062 253.253906 C 237.683594 251.039062 236.261719 248.792969 234.890625 246.507812 C 233.523438 244.226562 232.210938 241.910156 230.957031 239.5625 C 229.703125 237.214844 228.507812 234.839844 227.367188 232.433594 C 226.230469 230.027344 225.152344 227.59375 224.132812 225.136719 C 223.117188 222.675781 222.160156 220.195312 221.261719 217.6875 C 220.363281 215.183594 219.53125 212.65625 218.757812 210.109375 C 217.984375 207.5625 217.277344 204.996094 216.628906 202.414062 C 215.984375 199.832031 215.398438 197.238281 214.878906 194.628906 C 214.359375 192.015625 213.90625 189.394531 213.515625 186.761719 C 213.125 184.128906 212.800781 181.488281 212.539062 178.839844 C 212.277344 176.191406 212.082031 173.539062 211.953125 170.878906 C 211.820312 168.222656 211.753906 165.5625 211.753906 162.898438 C 211.753906 160.238281 211.820312 157.578125 211.953125 154.921875 C 212.082031 152.261719 212.277344 149.609375 212.539062 146.960938 C 212.800781 144.3125 213.125 141.667969 213.515625 139.039062 C 213.90625 136.40625 214.359375 133.78125 214.878906 131.171875 C 215.398438 128.5625 215.984375 125.964844 216.628906 123.382812 C 217.277344 120.800781 217.984375 118.238281 218.757812 115.691406 C 219.53125 113.144531 220.363281 110.617188 221.261719 108.113281 C 222.160156 105.605469 223.117188 103.121094 224.132812 100.664062 C 225.152344 98.207031 226.230469 95.773438 227.367188 93.367188 C 228.507812 90.960938 229.703125 88.582031 230.957031 86.238281 C 232.210938 83.890625 233.523438 81.574219 234.890625 79.292969 C 236.261719 77.007812 237.683594 74.761719 239.164062 72.546875 C 240.640625 70.335938 242.171875 68.160156 243.757812 66.019531 C 245.34375 63.882812 246.980469 61.785156 248.667969 59.726562 C 250.359375 57.671875 252.09375 55.65625 253.882812 53.683594 C 255.671875 51.710938 257.503906 49.785156 259.386719 47.902344 C 261.269531 46.019531 263.195312 44.1875 265.167969 42.398438 C 267.140625 40.613281 269.15625 38.875 271.210938 37.183594 C 273.269531 35.496094 275.367188 33.859375 277.503906 32.273438 C 279.640625 30.6875 281.816406 29.15625 284.03125 27.679688 C 286.242188 26.199219 288.492188 24.777344 290.773438 23.40625 C 293.058594 22.039062 295.371094 20.726562 297.71875 19.472656 C 300.066406 18.21875 302.441406 17.023438 304.847656 15.882812 C 307.253906 14.746094 309.6875 13.667969 312.144531 12.648438 C 314.605469 11.628906 317.085938 10.671875 319.59375 9.777344 C 322.097656 8.878906 324.625 8.046875 327.171875 7.273438 C 329.71875 6.5 332.28125 5.789062 334.863281 5.144531 C 337.445312 4.496094 340.042969 3.914062 342.652344 3.394531 C 345.261719 2.875 347.882812 2.421875 350.515625 2.03125 C 353.148438 1.640625 355.789062 1.3125 358.4375 1.054688 C 361.089844 0.792969 363.742188 0.597656 366.398438 0.464844 C 369.058594 0.335938 371.71875 0.269531 374.378906 0.269531 C 377.039062 0.269531 379.699219 0.335938 382.359375 0.464844 C 385.015625 0.597656 387.671875 0.792969 390.320312 1.054688 C 392.96875 1.3125 395.609375 1.640625 398.242188 2.03125 C 400.875 2.421875 403.496094 2.875 406.105469 3.394531 C 408.714844 3.914062 411.3125 4.496094 413.894531 5.144531 C 416.476562 5.789062 419.039062 6.5 421.585938 7.273438 C 424.132812 8.046875 426.660156 8.878906 429.164062 9.777344 C 431.671875 10.671875 434.152344 11.628906 436.613281 12.648438 C 439.070312 13.667969 441.503906 14.746094 443.910156 15.882812 C 446.316406 17.023438 448.691406 18.21875 451.039062 19.472656 C 453.386719 20.726562 455.703125 22.039062 457.984375 23.40625 C 460.265625 24.777344 462.515625 26.199219 464.726562 27.679688 C 466.941406 29.15625 469.117188 30.6875 471.253906 32.273438 C 473.390625 33.859375 475.488281 35.496094 477.546875 37.183594 C 479.605469 38.875 481.617188 40.613281 483.589844 42.398438 C 485.5625 44.1875 487.488281 46.019531 489.371094 47.902344 C 491.253906 49.785156 493.089844 51.710938 494.875 53.683594 C 496.664062 55.65625 498.402344 57.671875 500.089844 59.726562 C 501.777344 61.785156 503.414062 63.882812 505 66.019531 C 506.585938 68.160156 508.117188 70.335938 509.597656 72.546875 C 511.074219 74.761719 512.5 77.007812 513.867188 79.292969 C 515.234375 81.574219 516.546875 83.890625 517.800781 86.238281 C 519.054688 88.582031 520.25 90.960938 521.390625 93.367188 C 522.527344 95.773438 523.605469 98.207031 524.625 100.664062 C 525.640625 103.121094 526.601562 105.605469 527.496094 108.113281 C 528.394531 110.617188 529.226562 113.144531 530 115.691406 C 530.773438 118.238281 531.484375 120.800781 532.128906 123.382812 C 532.777344 125.964844 533.359375 128.5625 533.878906 131.171875 C 534.398438 133.78125 534.851562 136.40625 535.242188 139.039062 C 535.632812 141.667969 535.960938 144.3125 536.21875 146.960938 C 536.480469 149.609375 536.675781 152.261719 536.808594 154.921875 C 536.9375 157.578125 537.003906 160.238281 537.003906 162.898438 Z M 537.003906 162.898438 " fill-opacity="1" fill-rule="nonzero"/></g><path fill="#ea4435" d="M 724.644531 250.46875 C 724.644531 251.699219 724.617188 252.925781 724.554688 254.152344 C 724.496094 255.378906 724.40625 256.605469 724.285156 257.828125 C 724.164062 259.050781 724.011719 260.269531 723.832031 261.484375 C 723.652344 262.699219 723.441406 263.910156 723.203125 265.113281 C 722.964844 266.316406 722.695312 267.515625 722.394531 268.707031 C 722.097656 269.898438 721.769531 271.082031 721.414062 272.257812 C 721.058594 273.433594 720.671875 274.601562 720.257812 275.757812 C 719.84375 276.914062 719.402344 278.058594 718.933594 279.195312 C 718.460938 280.328125 717.964844 281.453125 717.441406 282.5625 C 716.914062 283.671875 716.363281 284.769531 715.78125 285.851562 C 715.203125 286.9375 714.597656 288.003906 713.96875 289.058594 C 713.335938 290.113281 712.679688 291.148438 711.996094 292.171875 C 711.3125 293.191406 710.605469 294.195312 709.875 295.183594 C 709.144531 296.167969 708.386719 297.136719 707.609375 298.085938 C 706.828125 299.039062 706.027344 299.96875 705.203125 300.878906 C 704.378906 301.789062 703.53125 302.675781 702.660156 303.546875 C 701.792969 304.414062 700.902344 305.261719 699.992188 306.085938 C 699.082031 306.910156 698.152344 307.710938 697.203125 308.492188 C 696.253906 309.269531 695.285156 310.027344 694.300781 310.757812 C 693.3125 311.492188 692.308594 312.199219 691.289062 312.878906 C 690.265625 313.5625 689.230469 314.21875 688.175781 314.851562 C 687.121094 315.484375 686.054688 316.089844 684.96875 316.667969 C 683.886719 317.246094 682.789062 317.796875 681.679688 318.324219 C 680.570312 318.847656 679.445312 319.347656 678.3125 319.816406 C 677.175781 320.285156 676.03125 320.726562 674.875 321.140625 C 673.71875 321.554688 672.550781 321.941406 671.375 322.296875 C 670.199219 322.65625 669.015625 322.980469 667.824219 323.28125 C 666.632812 323.578125 665.4375 323.847656 664.230469 324.085938 C 663.027344 324.328125 661.816406 324.539062 660.601562 324.71875 C 659.386719 324.898438 658.167969 325.046875 656.945312 325.167969 C 655.722656 325.289062 654.5 325.378906 653.273438 325.441406 C 652.042969 325.5 650.816406 325.53125 649.589844 325.53125 C 648.359375 325.53125 647.132812 325.5 645.90625 325.441406 C 644.679688 325.378906 643.453125 325.289062 642.230469 325.167969 C 641.007812 325.046875 639.789062 324.898438 638.574219 324.71875 C 637.359375 324.539062 636.152344 324.328125 634.945312 324.085938 C 633.742188 323.847656 632.542969 323.578125 631.351562 323.28125 C 630.160156 322.980469 628.976562 322.65625 627.800781 322.296875 C 626.625 321.941406 625.460938 321.554688 624.300781 321.140625 C 623.144531 320.726562 622 320.285156 620.867188 319.816406 C 619.730469 319.347656 618.609375 318.847656 617.496094 318.324219 C 616.386719 317.796875 615.289062 317.246094 614.207031 316.667969 C 613.125 316.089844 612.054688 315.484375 611 314.851562 C 609.949219 314.21875 608.910156 313.5625 607.890625 312.878906 C 606.867188 312.199219 605.863281 311.492188 604.878906 310.757812 C 603.890625 310.027344 602.921875 309.269531 601.972656 308.492188 C 601.023438 307.710938 600.09375 306.910156 599.183594 306.085938 C 598.273438 305.261719 597.382812 304.414062 596.515625 303.546875 C 595.648438 302.675781 594.800781 301.789062 593.976562 300.878906 C 593.148438 299.96875 592.347656 299.039062 591.570312 298.085938 C 590.789062 297.136719 590.035156 296.167969 589.300781 295.183594 C 588.570312 294.195312 587.863281 293.191406 587.179688 292.171875 C 586.5 291.148438 585.839844 290.113281 585.210938 289.058594 C 584.578125 288.003906 583.972656 286.9375 583.394531 285.851562 C 582.816406 284.769531 582.261719 283.671875 581.738281 282.5625 C 581.210938 281.453125 580.714844 280.328125 580.246094 279.195312 C 579.773438 278.058594 579.332031 276.914062 578.917969 275.757812 C 578.503906 274.601562 578.121094 273.433594 577.761719 272.257812 C 577.40625 271.082031 577.078125 269.898438 576.78125 268.707031 C 576.480469 267.515625 576.214844 266.316406 575.972656 265.113281 C 575.734375 263.910156 575.523438 262.699219 575.34375 261.484375 C 575.164062 260.269531 575.011719 259.050781 574.894531 257.828125 C 574.773438 256.605469 574.683594 255.378906 574.621094 254.152344 C 574.5625 252.925781 574.53125 251.699219 574.53125 250.46875 C 574.53125 249.242188 574.5625 248.015625 574.621094 246.785156 C 574.683594 245.558594 574.773438 244.335938 574.894531 243.113281 C 575.011719 241.890625 575.164062 240.671875 575.34375 239.457031 C 575.523438 238.242188 575.734375 237.03125 575.972656 235.828125 C 576.214844 234.621094 576.480469 233.421875 576.78125 232.230469 C 577.078125 231.039062 577.40625 229.855469 577.761719 228.679688 C 578.121094 227.503906 578.503906 226.339844 578.917969 225.183594 C 579.332031 224.027344 579.773438 222.878906 580.246094 221.746094 C 580.714844 220.609375 581.210938 219.488281 581.738281 218.378906 C 582.261719 217.265625 582.816406 216.171875 583.394531 215.085938 C 583.972656 214.003906 584.578125 212.933594 585.210938 211.882812 C 585.839844 210.828125 586.5 209.789062 587.179688 208.769531 C 587.863281 207.746094 588.570312 206.742188 589.300781 205.757812 C 590.035156 204.769531 590.789062 203.800781 591.570312 202.851562 C 592.347656 201.902344 593.148438 200.972656 593.976562 200.0625 C 594.800781 199.152344 595.648438 198.261719 596.515625 197.394531 C 597.382812 196.527344 598.273438 195.679688 599.183594 194.855469 C 600.09375 194.027344 601.023438 193.226562 601.972656 192.449219 C 602.921875 191.667969 603.890625 190.914062 604.878906 190.179688 C 605.863281 189.449219 606.867188 188.742188 607.890625 188.058594 C 608.910156 187.378906 609.949219 186.71875 611 186.089844 C 612.054688 185.457031 613.125 184.851562 614.207031 184.273438 C 615.289062 183.695312 616.386719 183.140625 617.496094 182.617188 C 618.609375 182.089844 619.730469 181.59375 620.867188 181.125 C 622 180.652344 623.144531 180.210938 624.300781 179.796875 C 625.460938 179.382812 626.625 179 627.800781 178.640625 C 628.976562 178.285156 630.160156 177.957031 631.351562 177.660156 C 632.542969 177.359375 633.742188 177.09375 634.945312 176.851562 C 636.152344 176.613281 637.359375 176.402344 638.574219 176.222656 C 639.789062 176.042969 641.007812 175.890625 642.230469 175.769531 C 643.453125 175.652344 644.679688 175.5625 645.90625 175.5 C 647.132812 175.441406 648.359375 175.410156 649.589844 175.410156 C 650.816406 175.410156 652.042969 175.441406 653.273438 175.5 C 654.5 175.5625 655.722656 175.652344 656.945312 175.769531 C 658.167969 175.890625 659.386719 176.042969 660.601562 176.222656 C 661.816406 176.402344 663.027344 176.613281 664.230469 176.851562 C 665.4375 177.09375 666.632812 177.359375 667.824219 177.660156 C 669.015625 177.957031 670.199219 178.285156 671.375 178.640625 C 672.550781 179 673.71875 179.382812 674.875 179.796875 C 676.03125 180.210938 677.175781 180.652344 678.3125 181.125 C 679.445312 181.59375 680.570312 182.089844 681.679688 182.617188 C 682.789062 183.140625 683.886719 183.695312 684.96875 184.273438 C 686.054688 184.851562 687.121094 185.457031 688.175781 186.089844 C 689.230469 186.71875 690.265625 187.378906 691.289062 188.058594 C 692.308594 188.742188 693.3125 189.449219 694.300781 190.179688 C 695.285156 190.914062 696.253906 191.667969 697.203125 192.449219 C 698.152344 193.226562 699.082031 194.027344 699.992188 194.855469 C 700.902344 195.679688 701.792969 196.527344 702.660156 197.394531 C 703.53125 198.261719 704.378906 199.152344 705.203125 200.0625 C 706.027344 200.972656 706.828125 201.902344 707.609375 202.851562 C 708.386719 203.800781 709.144531 204.769531 709.875 205.757812 C 710.605469 206.742188 711.3125 207.746094 711.996094 208.769531 C 712.679688 209.789062 713.335938 210.828125 713.96875 211.882812 C 714.597656 212.933594 715.203125 214.003906 715.78125 215.085938 C 716.363281 216.171875 716.914062 217.265625 717.441406 218.378906 C 717.964844 219.488281 718.460938 220.609375 718.933594 221.746094 C 719.402344 222.878906 719.84375 224.027344 720.257812 225.183594 C 720.671875 226.339844 721.058594 227.503906 721.414062 228.679688 C 721.769531 229.855469 722.097656 231.039062 722.394531 232.230469 C 722.695312 233.421875 722.964844 234.621094 723.203125 235.828125 C 723.441406 237.03125 723.652344 238.242188 723.832031 239.457031 C 724.011719 240.671875 724.164062 241.890625 724.285156 243.113281 C 724.40625 244.335938 724.496094 245.558594 724.554688 246.785156 C 724.617188 248.015625 724.644531 249.242188 724.644531 250.46875 Z M 724.644531 250.46875 " fill-opacity="1" fill-rule="nonzero"/><g clip-path="url(#7947b99f2c)"><path fill="#fbc02d" d="M 749.664062 475.648438 C 749.664062 477.289062 749.625 478.925781 749.542969 480.5625 C 749.464844 482.195312 749.34375 483.828125 749.183594 485.460938 C 749.023438 487.089844 748.820312 488.714844 748.582031 490.335938 C 748.339844 491.953125 748.0625 493.566406 747.742188 495.175781 C 747.421875 496.78125 747.0625 498.378906 746.664062 499.96875 C 746.269531 501.554688 745.832031 503.132812 745.355469 504.703125 C 744.878906 506.269531 744.367188 507.824219 743.816406 509.367188 C 743.261719 510.90625 742.671875 512.4375 742.046875 513.949219 C 741.421875 515.460938 740.757812 516.960938 740.054688 518.441406 C 739.355469 519.921875 738.621094 521.382812 737.847656 522.828125 C 737.074219 524.273438 736.269531 525.695312 735.425781 527.101562 C 734.585938 528.507812 733.707031 529.890625 732.800781 531.25 C 731.890625 532.613281 730.945312 533.953125 729.96875 535.269531 C 728.996094 536.582031 727.988281 537.875 726.949219 539.140625 C 725.910156 540.40625 724.839844 541.644531 723.738281 542.859375 C 722.640625 544.074219 721.511719 545.257812 720.351562 546.417969 C 719.195312 547.574219 718.007812 548.703125 716.796875 549.804688 C 715.582031 550.90625 714.34375 551.972656 713.078125 553.011719 C 711.808594 554.050781 710.519531 555.058594 709.203125 556.035156 C 707.886719 557.011719 706.550781 557.953125 705.1875 558.863281 C 703.824219 559.773438 702.441406 560.648438 701.039062 561.492188 C 699.632812 562.332031 698.207031 563.140625 696.765625 563.914062 C 695.320312 564.683594 693.855469 565.421875 692.375 566.121094 C 690.894531 566.820312 689.398438 567.484375 687.886719 568.113281 C 686.371094 568.738281 684.84375 569.328125 683.304688 569.878906 C 681.761719 570.429688 680.207031 570.945312 678.640625 571.421875 C 677.070312 571.894531 675.492188 572.332031 673.90625 572.730469 C 672.316406 573.128906 670.71875 573.488281 669.113281 573.808594 C 667.507812 574.125 665.894531 574.40625 664.273438 574.648438 C 662.652344 574.886719 661.027344 575.085938 659.398438 575.25 C 657.769531 575.410156 656.136719 575.527344 654.5 575.609375 C 652.863281 575.691406 651.226562 575.730469 649.589844 575.730469 C 647.949219 575.730469 646.3125 575.691406 644.679688 575.609375 C 643.042969 575.527344 641.410156 575.410156 639.78125 575.25 C 638.148438 575.085938 636.523438 574.886719 634.90625 574.648438 C 633.285156 574.40625 631.671875 574.125 630.066406 573.808594 C 628.457031 573.488281 626.859375 573.128906 625.273438 572.730469 C 623.683594 572.332031 622.105469 571.894531 620.539062 571.421875 C 618.972656 570.945312 617.414062 570.429688 615.875 569.878906 C 614.332031 569.328125 612.804688 568.738281 611.292969 568.113281 C 609.777344 567.484375 608.28125 566.820312 606.800781 566.121094 C 605.320312 565.421875 603.859375 564.683594 602.414062 563.914062 C 600.96875 563.140625 599.542969 562.332031 598.140625 561.492188 C 596.734375 560.648438 595.351562 559.773438 593.988281 558.863281 C 592.628906 557.953125 591.289062 557.011719 589.972656 556.035156 C 588.65625 555.058594 587.367188 554.050781 586.101562 553.011719 C 584.835938 551.972656 583.59375 550.90625 582.382812 549.804688 C 581.167969 548.703125 579.980469 547.574219 578.824219 546.417969 C 577.664062 545.257812 576.535156 544.074219 575.4375 542.859375 C 574.335938 541.644531 573.269531 540.40625 572.230469 539.140625 C 571.191406 537.875 570.183594 536.582031 569.207031 535.269531 C 568.230469 533.953125 567.289062 532.613281 566.378906 531.25 C 565.46875 529.890625 564.59375 528.507812 563.75 527.101562 C 562.910156 525.695312 562.101562 524.273438 561.328125 522.828125 C 560.558594 521.382812 559.820312 519.921875 559.121094 518.441406 C 558.421875 516.960938 557.757812 515.460938 557.128906 513.949219 C 556.503906 512.4375 555.914062 510.90625 555.363281 509.367188 C 554.8125 507.824219 554.296875 506.269531 553.820312 504.703125 C 553.347656 503.132812 552.910156 501.554688 552.511719 499.96875 C 552.113281 498.378906 551.753906 496.78125 551.433594 495.175781 C 551.117188 493.566406 550.835938 491.953125 550.59375 490.335938 C 550.355469 488.714844 550.15625 487.089844 549.996094 485.460938 C 549.832031 483.828125 549.714844 482.195312 549.632812 480.5625 C 549.550781 478.925781 549.511719 477.289062 549.511719 475.648438 C 549.511719 474.011719 549.550781 472.375 549.632812 470.738281 C 549.714844 469.101562 549.832031 467.46875 549.996094 465.839844 C 550.15625 464.210938 550.355469 462.585938 550.59375 460.964844 C 550.835938 459.34375 551.117188 457.730469 551.433594 456.125 C 551.753906 454.519531 552.113281 452.921875 552.511719 451.332031 C 552.910156 449.742188 553.347656 448.164062 553.820312 446.597656 C 554.296875 445.03125 554.8125 443.476562 555.363281 441.933594 C 555.914062 440.390625 556.503906 438.863281 557.128906 437.351562 C 557.757812 435.835938 558.421875 434.339844 559.121094 432.859375 C 559.820312 431.378906 560.558594 429.917969 561.328125 428.472656 C 562.101562 427.027344 562.910156 425.601562 563.75 424.199219 C 564.59375 422.792969 565.46875 421.410156 566.378906 420.046875 C 567.289062 418.6875 568.230469 417.347656 569.207031 416.03125 C 570.183594 414.71875 571.191406 413.425781 572.230469 412.160156 C 573.269531 410.894531 574.335938 409.652344 575.4375 408.441406 C 576.535156 407.226562 577.664062 406.039062 578.824219 404.882812 C 579.980469 403.726562 581.167969 402.59375 582.382812 401.496094 C 583.59375 400.394531 584.835938 399.328125 586.101562 398.289062 C 587.367188 397.246094 588.65625 396.242188 589.972656 395.265625 C 591.289062 394.289062 592.628906 393.347656 593.988281 392.4375 C 595.351562 391.527344 596.734375 390.652344 598.140625 389.808594 C 599.542969 388.964844 600.96875 388.160156 602.414062 387.386719 C 603.859375 386.613281 605.320312 385.878906 606.800781 385.179688 C 608.28125 384.476562 609.777344 383.816406 611.292969 383.1875 C 612.804688 382.5625 614.332031 381.972656 615.875 381.421875 C 617.417969 380.867188 618.972656 380.355469 620.539062 379.878906 C 622.105469 379.402344 623.683594 378.96875 625.273438 378.570312 C 626.859375 378.171875 628.457031 377.8125 630.066406 377.492188 C 631.671875 377.171875 633.285156 376.894531 634.90625 376.652344 C 636.523438 376.414062 638.148438 376.210938 639.78125 376.050781 C 641.410156 375.890625 643.042969 375.769531 644.679688 375.691406 C 646.3125 375.609375 647.949219 375.570312 649.589844 375.570312 C 651.226562 375.570312 652.863281 375.609375 654.5 375.691406 C 656.136719 375.769531 657.769531 375.890625 659.398438 376.050781 C 661.027344 376.210938 662.652344 376.414062 664.273438 376.652344 C 665.894531 376.894531 667.507812 377.171875 669.113281 377.492188 C 670.71875 377.8125 672.316406 378.171875 673.90625 378.570312 C 675.492188 378.96875 677.070312 379.402344 678.640625 379.878906 C 680.207031 380.355469 681.761719 380.867188 683.304688 381.421875 C 684.84375 381.972656 686.371094 382.5625 687.886719 383.1875 C 689.398438 383.816406 690.894531 384.476562 692.375 385.179688 C 693.855469 385.878906 695.320312 386.613281 696.765625 387.386719 C 698.207031 388.160156 699.632812 388.964844 701.039062 389.808594 C 702.441406 390.652344 703.824219 391.527344 705.1875 392.4375 C 706.550781 393.347656 707.886719 394.289062 709.203125 395.265625 C 710.519531 396.242188 711.808594 397.246094 713.078125 398.289062 C 714.34375 399.328125 715.582031 400.394531 716.796875 401.496094 C 718.007812 402.59375 719.195312 403.726562 720.351562 404.882812 C 721.511719 406.039062 722.640625 407.226562 723.738281 408.441406 C 724.839844 409.652344 725.910156 410.894531 726.949219 412.160156 C 727.988281 413.425781 728.996094 414.71875 729.96875 416.03125 C 730.945312 417.347656 731.890625 418.6875 732.800781 420.046875 C 733.707031 421.410156 734.585938 422.792969 735.425781 424.199219 C 736.269531 425.601562 737.074219 427.027344 737.847656 428.472656 C 738.621094 429.917969 739.355469 431.378906 740.054688 432.859375 C 740.757812 434.339844 741.421875 435.835938 742.046875 437.351562 C 742.671875 438.863281 743.261719 440.390625 743.816406 441.933594 C 744.367188 443.476562 744.878906 445.03125 745.355469 446.597656 C 745.832031 448.164062 746.269531 449.742188 746.664062 451.332031 C 747.0625 452.921875 747.421875 454.519531 747.742188 456.125 C 748.0625 457.730469 748.339844 459.34375 748.582031 460.964844 C 748.820312 462.585938 749.023438 464.210938 749.183594 465.839844 C 749.34375 467.46875 749.464844 469.101562 749.542969 470.738281 C 749.625 472.375 749.664062 474.011719 749.664062 475.648438 Z M 749.664062 475.648438 " fill-opacity="1" fill-rule="nonzero"/></g><g clip-path="url(#66b62aa1fb)"><path fill="#00ac47" d="M 812.210938 150.390625 C 812.210938 151.617188 812.152344 152.84375 812.03125 154.070312 C 811.910156 155.292969 811.730469 156.507812 811.492188 157.710938 C 811.25 158.917969 810.953125 160.109375 810.597656 161.285156 C 810.238281 162.460938 809.824219 163.617188 809.355469 164.753906 C 808.886719 165.886719 808.359375 166.996094 807.78125 168.082031 C 807.203125 169.164062 806.570312 170.21875 805.886719 171.242188 C 805.203125 172.261719 804.472656 173.25 803.695312 174.199219 C 802.914062 175.148438 802.089844 176.058594 801.21875 176.925781 C 800.351562 177.796875 799.441406 178.621094 798.492188 179.402344 C 797.542969 180.179688 796.554688 180.910156 795.535156 181.59375 C 794.511719 182.277344 793.457031 182.910156 792.375 183.488281 C 791.289062 184.066406 790.179688 184.59375 789.046875 185.0625 C 787.910156 185.535156 786.753906 185.945312 785.578125 186.304688 C 784.402344 186.660156 783.210938 186.960938 782.003906 187.199219 C 780.800781 187.4375 779.585938 187.617188 778.363281 187.738281 C 777.140625 187.859375 775.914062 187.921875 774.683594 187.921875 C 773.453125 187.921875 772.230469 187.859375 771.003906 187.738281 C 769.78125 187.617188 768.566406 187.4375 767.363281 187.199219 C 766.15625 186.960938 764.964844 186.660156 763.789062 186.304688 C 762.613281 185.945312 761.457031 185.535156 760.320312 185.0625 C 759.1875 184.59375 758.078125 184.066406 756.992188 183.488281 C 755.910156 182.910156 754.855469 182.277344 753.835938 181.59375 C 752.8125 180.910156 751.824219 180.179688 750.875 179.402344 C 749.925781 178.621094 749.015625 177.796875 748.148438 176.925781 C 747.277344 176.058594 746.453125 175.148438 745.675781 174.199219 C 744.894531 173.25 744.164062 172.261719 743.480469 171.242188 C 742.796875 170.21875 742.164062 169.164062 741.585938 168.082031 C 741.007812 166.996094 740.480469 165.886719 740.011719 164.753906 C 739.542969 163.617188 739.128906 162.460938 738.769531 161.285156 C 738.414062 160.109375 738.117188 158.917969 737.875 157.710938 C 737.636719 156.507812 737.457031 155.292969 737.335938 154.070312 C 737.214844 152.84375 737.15625 151.617188 737.15625 150.390625 C 737.15625 149.160156 737.214844 147.933594 737.335938 146.710938 C 737.457031 145.488281 737.636719 144.273438 737.875 143.066406 C 738.117188 141.863281 738.414062 140.671875 738.769531 139.496094 C 739.128906 138.320312 739.542969 137.164062 740.011719 136.027344 C 740.480469 134.890625 741.007812 133.78125 741.585938 132.699219 C 742.164062 131.613281 742.796875 130.5625 743.480469 129.539062 C 744.164062 128.515625 744.894531 127.53125 745.675781 126.582031 C 746.453125 125.632812 747.277344 124.722656 748.148438 123.851562 C 749.015625 122.984375 749.925781 122.160156 750.875 121.378906 C 751.824219 120.597656 752.8125 119.867188 753.835938 119.183594 C 754.855469 118.5 755.910156 117.871094 756.992188 117.292969 C 758.078125 116.710938 759.1875 116.1875 760.320312 115.714844 C 761.457031 115.246094 762.613281 114.832031 763.789062 114.476562 C 764.964844 114.117188 766.15625 113.820312 767.363281 113.582031 C 768.566406 113.339844 769.78125 113.160156 771.003906 113.039062 C 772.230469 112.921875 773.453125 112.859375 774.683594 112.859375 C 775.914062 112.859375 777.140625 112.921875 778.363281 113.039062 C 779.585938 113.160156 780.800781 113.339844 782.003906 113.582031 C 783.210938 113.820312 784.402344 114.117188 785.578125 114.476562 C 786.753906 114.832031 787.910156 115.246094 789.046875 115.714844 C 790.179688 116.1875 791.289062 116.710938 792.375 117.292969 C 793.457031 117.871094 794.511719 118.5 795.535156 119.183594 C 796.554688 119.867188 797.542969 120.597656 798.492188 121.378906 C 799.441406 122.160156 800.351562 122.984375 801.21875 123.851562 C 802.089844 124.722656 802.914062 125.632812 803.695312 126.582031 C 804.472656 127.53125 805.203125 128.515625 805.886719 129.539062 C 806.570312 130.5625 807.203125 131.613281 807.78125 132.699219 C 808.359375 133.78125 808.886719 134.890625 809.355469 136.027344 C 809.824219 137.164062 810.238281 138.320312 810.597656 139.496094 C 810.953125 140.671875 811.25 141.863281 811.492188 143.066406 C 811.730469 144.273438 811.910156 145.488281 812.03125 146.710938 C 812.152344 147.933594 812.210938 149.160156 812.210938 150.390625 Z M 812.210938 150.390625 " fill-opacity="1" fill-rule="nonzero"/></g></svg>