<svg xmlns="http://www.w3.org/2000/svg" xmlns:xlink="http://www.w3.org/1999/xlink" width="1366" zoomAndPan="magnify" viewBox="0 0 1024.5 491.999982" height="768" preserveAspectRatio="xMidYMid meet" version="1.0"><defs><clipPath id="a3d39fd6fb"><path d="M 0 0.121094 L 1024 0.121094 L 1024 491.878906 L 0 491.878906 Z M 0 0.121094 " clip-rule="nonzero"/></clipPath><clipPath id="28841b90b9"><path d="M 269.941406 11 L 754 11 L 754 481.53125 L 269.941406 481.53125 Z M 269.941406 11 " clip-rule="nonzero"/></clipPath></defs><g clip-path="url(#a3d39fd6fb)"><path fill="#ffffff" d="M 0 0.121094 L 1024 0.121094 L 1024 491.878906 L 0 491.878906 Z M 0 0.121094 " fill-opacity="1" fill-rule="nonzero"/><path fill="#ffffff" d="M 0 0.121094 L 1024 0.121094 L 1024 491.878906 L 0 491.878906 Z M 0 0.121094 " fill-opacity="1" fill-rule="nonzero"/></g><g clip-path="url(#28841b90b9)"><path fill="#292929" d="M 671.203125 262.636719 L 671.203125 471.808594 C 671.203125 477.019531 666.988281 481.234375 661.777344 481.234375 L 361.21875 481.234375 C 356.117188 481.234375 351.902344 477.019531 351.902344 471.808594 L 351.902344 262.636719 L 279.257812 262.636719 C 274.15625 262.636719 269.941406 258.421875 269.941406 253.320312 C 269.941406 250.4375 271.160156 247.996094 273.046875 246.222656 L 497.964844 14.535156 C 501.625 10.765625 507.503906 10.765625 511.164062 14.3125 L 750.28125 246.554688 C 753.941406 250.101562 754.050781 256.09375 750.390625 259.753906 C 748.617188 261.636719 746.175781 262.636719 743.738281 262.636719 Z M 463.695312 318.976562 L 558.964844 318.976562 C 564.179688 318.976562 568.390625 323.191406 568.390625 328.402344 L 568.390625 329.179688 L 568.613281 462.378906 L 652.347656 462.378906 L 652.347656 253.320312 C 652.347656 248.105469 656.5625 243.890625 661.777344 243.890625 L 720.667969 243.890625 L 504.84375 34.277344 L 301.4375 243.890625 L 361.21875 243.890625 C 366.429688 243.890625 370.644531 248.105469 370.644531 253.320312 L 370.644531 462.378906 L 454.378906 462.378906 L 454.378906 328.402344 C 454.378906 323.191406 458.59375 319.085938 463.695312 319.085938 Z M 549.648438 337.832031 L 473.121094 337.832031 L 473.011719 462.378906 L 549.980469 462.378906 Z M 549.648438 337.832031 " fill-opacity="1" fill-rule="nonzero"/></g></svg>