<svg xmlns="http://www.w3.org/2000/svg" xmlns:xlink="http://www.w3.org/1999/xlink" width="1366" zoomAndPan="magnify" viewBox="0 0 1024.5 576" height="768" preserveAspectRatio="xMidYMid meet" version="1.0"><defs><clipPath id="cb2c702a3e"><path d="M 0 0.140625 L 1024 0.140625 L 1024 575.859375 L 0 575.859375 Z M 0 0.140625 " clip-rule="nonzero"/></clipPath><clipPath id="72738b9b5d"><path d="M 244.566406 11.082031 L 779.804688 11.082031 L 779.804688 546.320312 L 244.566406 546.320312 Z M 244.566406 11.082031 " clip-rule="nonzero"/></clipPath></defs><g clip-path="url(#cb2c702a3e)"><path fill="#ffffff" d="M 0 0.140625 L 1024 0.140625 L 1024 575.859375 L 0 575.859375 Z M 0 0.140625 " fill-opacity="1" fill-rule="nonzero"/><path fill="#ffffff" d="M 0 0.140625 L 1024 0.140625 L 1024 575.859375 L 0 575.859375 Z M 0 0.140625 " fill-opacity="1" fill-rule="nonzero"/></g><g clip-path="url(#72738b9b5d)"><path fill="#000000" d="M 512.183594 546.320312 C 507.804688 546.320312 503.429688 546.214844 499.054688 546 C 494.679688 545.785156 490.3125 545.460938 485.953125 545.03125 C 481.59375 544.605469 477.25 544.066406 472.917969 543.425781 C 468.585938 542.78125 464.269531 542.035156 459.976562 541.179688 C 455.679688 540.324219 451.40625 539.367188 447.160156 538.300781 C 442.910156 537.238281 438.691406 536.070312 434.5 534.796875 C 430.308594 533.527344 426.152344 532.152344 422.027344 530.675781 C 417.902344 529.203125 413.816406 527.625 409.773438 525.949219 C 405.726562 524.273438 401.722656 522.5 397.761719 520.628906 C 393.804688 518.753906 389.894531 516.785156 386.03125 514.722656 C 382.167969 512.65625 378.359375 510.5 374.601562 508.246094 C 370.84375 505.996094 367.144531 503.652344 363.503906 501.21875 C 359.863281 498.785156 356.28125 496.265625 352.765625 493.65625 C 349.246094 491.046875 345.796875 488.351562 342.410156 485.574219 C 339.023438 482.796875 335.707031 479.9375 332.464844 476.996094 C 329.21875 474.054688 326.046875 471.035156 322.949219 467.9375 C 319.851562 464.839844 316.832031 461.667969 313.890625 458.425781 C 310.949219 455.179688 308.089844 451.863281 305.3125 448.476562 C 302.535156 445.09375 299.839844 441.640625 297.230469 438.121094 C 294.621094 434.605469 292.101562 431.023438 289.667969 427.382812 C 287.234375 423.742188 284.890625 420.042969 282.640625 416.285156 C 280.390625 412.53125 278.230469 408.71875 276.167969 404.855469 C 274.101562 400.996094 272.132812 397.082031 270.261719 393.125 C 268.386719 389.164062 266.613281 385.164062 264.9375 381.117188 C 263.261719 377.070312 261.683594 372.984375 260.210938 368.859375 C 258.734375 364.738281 257.359375 360.578125 256.089844 356.386719 C 254.816406 352.195312 253.648438 347.976562 252.585938 343.726562 C 251.523438 339.480469 250.5625 335.207031 249.707031 330.914062 C 248.855469 326.617188 248.105469 322.300781 247.460938 317.96875 C 246.820312 313.636719 246.285156 309.292969 245.855469 304.933594 C 245.425781 300.574219 245.101562 296.207031 244.886719 291.832031 C 244.671875 287.460938 244.566406 283.082031 244.566406 278.703125 C 244.566406 274.324219 244.671875 269.945312 244.886719 265.570312 C 245.101562 261.195312 245.425781 256.828125 245.855469 252.472656 C 246.285156 248.113281 246.820312 243.765625 247.460938 239.433594 C 248.105469 235.101562 248.855469 230.789062 249.707031 226.492188 C 250.5625 222.195312 251.523438 217.925781 252.585938 213.675781 C 253.648438 209.425781 254.816406 205.207031 256.089844 201.015625 C 257.359375 196.824219 258.734375 192.667969 260.210938 188.542969 C 261.683594 184.421875 263.261719 180.335938 264.9375 176.289062 C 266.613281 172.242188 268.386719 168.238281 270.261719 164.28125 C 272.132812 160.320312 274.101562 156.410156 276.167969 152.546875 C 278.230469 148.683594 280.390625 144.875 282.640625 141.117188 C 284.890625 137.363281 287.234375 133.664062 289.667969 130.019531 C 292.101562 126.378906 294.621094 122.800781 297.230469 119.28125 C 299.839844 115.765625 302.535156 112.3125 305.3125 108.925781 C 308.089844 105.539062 310.949219 102.226562 313.890625 98.980469 C 316.832031 95.734375 319.851562 92.5625 322.949219 89.464844 C 326.046875 86.371094 329.21875 83.351562 332.464844 80.410156 C 335.707031 77.46875 339.023438 74.609375 342.410156 71.828125 C 345.796875 69.050781 349.246094 66.355469 352.765625 63.75 C 356.28125 61.140625 359.863281 58.617188 363.503906 56.183594 C 367.144531 53.75 370.84375 51.410156 374.601562 49.15625 C 378.359375 46.90625 382.167969 44.746094 386.03125 42.683594 C 389.894531 40.617188 393.804688 38.648438 397.761719 36.777344 C 401.722656 34.90625 405.726562 33.128906 409.773438 31.453125 C 413.816406 29.777344 417.902344 28.203125 422.027344 26.726562 C 426.152344 25.25 430.308594 23.878906 434.5 22.605469 C 438.691406 21.335938 442.910156 20.167969 447.160156 19.101562 C 451.40625 18.039062 455.679688 17.078125 459.976562 16.226562 C 464.269531 15.371094 468.585938 14.621094 472.917969 13.980469 C 477.25 13.335938 481.59375 12.800781 485.953125 12.371094 C 490.3125 11.941406 494.679688 11.621094 499.054688 11.40625 C 503.429688 11.191406 507.804688 11.082031 512.183594 11.082031 C 516.566406 11.082031 520.941406 11.191406 525.316406 11.40625 C 529.691406 11.621094 534.058594 11.941406 538.417969 12.371094 C 542.773438 12.800781 547.121094 13.335938 551.453125 13.980469 C 555.785156 14.621094 560.097656 15.371094 564.394531 16.226562 C 568.691406 17.078125 572.964844 18.039062 577.210938 19.101562 C 581.460938 20.167969 585.679688 21.335938 589.871094 22.605469 C 594.0625 23.878906 598.21875 25.25 602.34375 26.726562 C 606.46875 28.203125 610.550781 29.777344 614.597656 31.453125 C 618.644531 33.128906 622.648438 34.90625 626.605469 36.777344 C 630.566406 38.648438 634.476562 40.617188 638.339844 42.683594 C 642.203125 44.746094 646.011719 46.90625 649.769531 49.15625 C 653.527344 51.410156 657.226562 53.75 660.867188 56.183594 C 664.507812 58.617188 668.089844 61.140625 671.605469 63.75 C 675.125 66.355469 678.574219 69.050781 681.960938 71.828125 C 685.347656 74.609375 688.664062 77.46875 691.90625 80.410156 C 695.152344 83.351562 698.324219 86.371094 701.421875 89.464844 C 704.519531 92.5625 707.535156 95.734375 710.476562 98.980469 C 713.417969 102.226562 716.277344 105.539062 719.058594 108.925781 C 721.835938 112.3125 724.53125 115.765625 727.140625 119.28125 C 729.75 122.800781 732.269531 126.378906 734.703125 130.019531 C 737.136719 133.664062 739.476562 137.363281 741.730469 141.117188 C 743.980469 144.875 746.140625 148.683594 748.203125 152.546875 C 750.269531 156.410156 752.238281 160.320312 754.109375 164.28125 C 755.984375 168.238281 757.757812 172.242188 759.433594 176.289062 C 761.109375 180.335938 762.683594 184.421875 764.160156 188.542969 C 765.636719 192.667969 767.007812 196.824219 768.28125 201.015625 C 769.550781 205.207031 770.71875 209.425781 771.785156 213.675781 C 772.847656 217.925781 773.808594 222.195312 774.664062 226.492188 C 775.515625 230.789062 776.265625 235.101562 776.90625 239.433594 C 777.550781 243.765625 778.085938 248.113281 778.515625 252.472656 C 778.945312 256.828125 779.265625 261.195312 779.480469 265.570312 C 779.695312 269.945312 779.804688 274.324219 779.804688 278.703125 C 779.800781 283.082031 779.6875 287.457031 779.46875 291.828125 C 779.25 296.203125 778.921875 300.566406 778.488281 304.925781 C 778.054688 309.28125 777.515625 313.625 776.867188 317.953125 C 776.222656 322.285156 775.46875 326.597656 774.609375 330.890625 C 773.753906 335.183594 772.789062 339.453125 771.722656 343.699219 C 770.65625 347.945312 769.484375 352.164062 768.210938 356.351562 C 766.9375 360.542969 765.5625 364.699219 764.085938 368.820312 C 762.605469 372.941406 761.027344 377.023438 759.351562 381.066406 C 757.671875 385.113281 755.898438 389.113281 754.023438 393.070312 C 752.148438 397.027344 750.179688 400.933594 748.113281 404.796875 C 746.046875 408.65625 743.886719 412.464844 741.636719 416.21875 C 739.382812 419.972656 737.042969 423.671875 734.609375 427.308594 C 732.175781 430.949219 729.652344 434.527344 727.042969 438.042969 C 724.433594 441.5625 721.742188 445.011719 718.964844 448.394531 C 716.183594 451.777344 713.324219 455.09375 710.386719 458.335938 C 707.445312 461.582031 704.425781 464.75 701.332031 467.847656 C 698.234375 470.941406 695.0625 473.960938 691.820312 476.902344 C 688.578125 479.84375 685.261719 482.703125 681.878906 485.480469 C 678.492188 488.257812 675.042969 490.953125 671.527344 493.5625 C 668.011719 496.167969 664.433594 498.691406 660.792969 501.125 C 657.152344 503.558594 653.457031 505.902344 649.703125 508.152344 C 645.945312 510.40625 642.140625 512.566406 638.277344 514.628906 C 634.417969 516.695312 630.507812 518.664062 626.550781 520.539062 C 622.59375 522.414062 618.59375 524.191406 614.550781 525.867188 C 610.507812 527.546875 606.421875 529.125 602.300781 530.601562 C 598.179688 532.078125 594.027344 533.453125 589.835938 534.730469 C 585.648438 536.003906 581.429688 537.171875 577.183594 538.242188 C 572.9375 539.308594 568.667969 540.269531 564.375 541.128906 C 560.082031 541.984375 555.769531 542.738281 551.4375 543.386719 C 547.109375 544.03125 542.765625 544.570312 538.40625 545.003906 C 534.050781 545.4375 529.683594 545.765625 525.3125 545.984375 C 520.9375 546.203125 516.5625 546.316406 512.183594 546.320312 Z M 386.261719 482.320312 C 390.964844 485.230469 395.757812 487.972656 400.648438 490.550781 C 405.539062 493.128906 410.511719 495.535156 415.566406 497.765625 C 420.625 500 425.75 502.054688 430.949219 503.933594 C 436.148438 505.8125 441.40625 507.507812 446.726562 509.019531 C 452.042969 510.53125 457.402344 511.859375 462.8125 513 C 468.222656 514.140625 473.664062 515.09375 479.136719 515.859375 C 484.613281 516.621094 490.105469 517.195312 495.621094 517.578125 C 501.136719 517.960938 506.65625 518.152344 512.183594 518.152344 C 517.714844 518.152344 523.234375 517.960938 528.75 517.578125 C 534.261719 517.195312 539.757812 516.621094 545.234375 515.859375 C 550.707031 515.09375 556.148438 514.140625 561.558594 513 C 566.964844 511.859375 572.328125 510.53125 577.644531 509.019531 C 582.960938 507.507812 588.21875 505.8125 593.417969 503.933594 C 598.617188 502.054688 603.746094 500 608.804688 497.765625 C 613.859375 495.535156 618.832031 493.128906 623.722656 490.550781 C 628.613281 487.972656 633.40625 485.230469 638.105469 482.320312 C 631.207031 447.300781 599.515625 317.296875 512.183594 317.296875 C 424.855469 317.296875 393.164062 447.300781 386.261719 482.320312 Z M 563.089844 301.238281 C 626.527344 333.492188 653.628906 422.371094 663.179688 464.488281 C 666.355469 461.90625 669.460938 459.25 672.5 456.511719 C 675.535156 453.769531 678.503906 450.957031 681.398438 448.066406 C 684.289062 445.175781 687.109375 442.214844 689.851562 439.179688 C 692.59375 436.144531 695.257812 433.039062 697.839844 429.867188 C 700.421875 426.699219 702.921875 423.460938 705.339844 420.164062 C 707.757812 416.863281 710.089844 413.503906 712.335938 410.085938 C 714.578125 406.667969 716.734375 403.191406 718.804688 399.664062 C 720.871094 396.132812 722.84375 392.554688 724.730469 388.921875 C 726.613281 385.292969 728.402344 381.613281 730.097656 377.890625 C 731.792969 374.171875 733.390625 370.40625 734.894531 366.601562 C 736.398438 362.796875 737.800781 358.957031 739.105469 355.082031 C 740.414062 351.207031 741.617188 347.296875 742.722656 343.359375 C 743.828125 339.421875 744.832031 335.457031 745.734375 331.46875 C 746.636719 327.480469 747.4375 323.46875 748.132812 319.4375 C 748.832031 315.40625 749.425781 311.363281 749.914062 307.300781 C 750.402344 303.242188 750.789062 299.167969 751.070312 295.089844 C 751.351562 291.007812 751.527344 286.921875 751.597656 282.832031 C 751.667969 278.742188 751.636719 274.65625 751.496094 270.566406 C 751.359375 266.480469 751.117188 262.398438 750.769531 258.320312 C 750.421875 254.246094 749.972656 250.183594 749.417969 246.128906 C 748.859375 242.078125 748.203125 238.042969 747.441406 234.023438 C 746.675781 230.003906 745.8125 226.007812 744.847656 222.035156 C 743.878906 218.058594 742.8125 214.113281 741.640625 210.191406 C 740.472656 206.273438 739.203125 202.386719 737.835938 198.53125 C 736.464844 194.675781 735 190.859375 733.4375 187.082031 C 731.871094 183.300781 730.210938 179.566406 728.457031 175.871094 C 726.699219 172.175781 724.851562 168.527344 722.910156 164.929688 C 720.964844 161.328125 718.933594 157.78125 716.808594 154.285156 C 714.683594 150.792969 712.472656 147.351562 710.171875 143.972656 C 707.871094 140.589844 705.484375 137.269531 703.015625 134.007812 C 700.542969 130.75 697.992188 127.554688 695.355469 124.425781 C 692.722656 121.296875 690.007812 118.238281 687.21875 115.246094 C 684.425781 112.257812 681.5625 109.339844 678.621094 106.496094 C 675.679688 103.65625 672.667969 100.886719 669.585938 98.199219 C 666.503906 95.511719 663.355469 92.902344 660.136719 90.375 C 656.921875 87.847656 653.644531 85.40625 650.300781 83.046875 C 646.960938 80.6875 643.5625 78.414062 640.105469 76.230469 C 636.644531 74.042969 633.136719 71.949219 629.570312 69.945312 C 626.003906 67.9375 622.390625 66.027344 618.726562 64.207031 C 615.0625 62.386719 611.355469 60.660156 607.605469 59.03125 C 603.855469 57.402344 600.0625 55.867188 596.234375 54.433594 C 592.402344 52.996094 588.539062 51.660156 584.640625 50.421875 C 580.742188 49.183594 576.8125 48.046875 572.859375 47.011719 C 568.902344 45.976562 564.921875 45.039062 560.914062 44.207031 C 556.910156 43.375 552.886719 42.644531 548.84375 42.019531 C 544.804688 41.394531 540.746094 40.871094 536.679688 40.453125 C 532.609375 40.035156 528.53125 39.722656 524.449219 39.511719 C 520.363281 39.300781 516.277344 39.195312 512.183594 39.195312 C 508.09375 39.195312 504.007812 39.300781 499.921875 39.511719 C 495.835938 39.722656 491.761719 40.035156 487.691406 40.453125 C 483.625 40.871094 479.566406 41.394531 475.527344 42.019531 C 471.484375 42.644531 467.460938 43.375 463.457031 44.207031 C 459.449219 45.039062 455.46875 45.976562 451.511719 47.011719 C 447.554688 48.046875 443.628906 49.183594 439.730469 50.421875 C 435.832031 51.660156 431.96875 52.996094 428.136719 54.433594 C 424.308594 55.867188 420.515625 57.402344 416.765625 59.03125 C 413.011719 60.660156 409.304688 62.386719 405.644531 64.207031 C 401.980469 66.027344 398.367188 67.9375 394.800781 69.945312 C 391.234375 71.949219 387.722656 74.042969 384.265625 76.230469 C 380.808594 78.414062 377.410156 80.6875 374.066406 83.046875 C 370.726562 85.40625 367.449219 87.847656 364.230469 90.375 C 361.015625 92.902344 357.867188 95.511719 354.785156 98.199219 C 351.703125 100.886719 348.691406 103.65625 345.75 106.496094 C 342.808594 109.339844 339.945312 112.257812 337.152344 115.246094 C 334.359375 118.238281 331.648438 121.296875 329.015625 124.425781 C 326.378906 127.554688 323.828125 130.75 321.355469 134.007812 C 318.886719 137.269531 316.5 140.589844 314.199219 143.972656 C 311.898438 147.351562 309.6875 150.792969 307.5625 154.285156 C 305.4375 157.78125 303.40625 161.328125 301.460938 164.929688 C 299.519531 168.527344 297.671875 172.175781 295.914062 175.871094 C 294.160156 179.566406 292.5 183.300781 290.933594 187.082031 C 289.371094 190.859375 287.90625 194.675781 286.535156 198.53125 C 285.167969 202.386719 283.898438 206.273438 282.730469 210.195312 C 281.558594 214.113281 280.492188 218.058594 279.523438 222.035156 C 278.558594 226.007812 277.691406 230.003906 276.929688 234.023438 C 276.167969 238.042969 275.511719 242.078125 274.953125 246.128906 C 274.398438 250.183594 273.949219 254.246094 273.601562 258.320312 C 273.253906 262.398438 273.011719 266.480469 272.871094 270.566406 C 272.734375 274.65625 272.703125 278.742188 272.773438 282.832031 C 272.84375 286.921875 273.019531 291.007812 273.300781 295.089844 C 273.582031 299.167969 273.96875 303.242188 274.457031 307.300781 C 274.945312 311.363281 275.539062 315.40625 276.238281 319.4375 C 276.933594 323.46875 277.734375 327.480469 278.636719 331.46875 C 279.539062 335.457031 280.542969 339.421875 281.648438 343.359375 C 282.753906 347.296875 283.957031 351.207031 285.265625 355.082031 C 286.570312 358.957031 287.972656 362.796875 289.476562 366.601562 C 290.976562 370.40625 292.578125 374.171875 294.273438 377.894531 C 295.96875 381.613281 297.757812 385.292969 299.640625 388.921875 C 301.523438 392.554688 303.5 396.132812 305.566406 399.664062 C 307.636719 403.191406 309.792969 406.667969 312.035156 410.085938 C 314.28125 413.503906 316.613281 416.863281 319.03125 420.164062 C 321.449219 423.460938 323.949219 426.699219 326.53125 429.867188 C 329.113281 433.039062 331.777344 436.144531 334.519531 439.179688 C 337.261719 442.214844 340.078125 445.175781 342.972656 448.066406 C 345.867188 450.957031 348.835938 453.769531 351.871094 456.511719 C 354.910156 459.25 358.015625 461.90625 361.191406 464.488281 C 370.742188 422.457031 397.8125 333.492188 461.28125 301.238281 C 460.011719 300.34375 458.765625 299.417969 457.542969 298.457031 C 456.320312 297.5 455.125 296.507812 453.957031 295.484375 C 452.789062 294.460938 451.644531 293.410156 450.53125 292.328125 C 449.417969 291.242188 448.332031 290.132812 447.277344 288.992188 C 446.222656 287.851562 445.199219 286.6875 444.203125 285.492188 C 443.210938 284.296875 442.246094 283.078125 441.316406 281.832031 C 440.386719 280.589844 439.492188 279.320312 438.628906 278.03125 C 437.765625 276.738281 436.9375 275.421875 436.144531 274.089844 C 435.351562 272.753906 434.59375 271.398438 433.871094 270.023438 C 433.148438 268.648438 432.464844 267.253906 431.8125 265.839844 C 431.164062 264.429688 430.554688 263.003906 429.980469 261.558594 C 429.40625 260.113281 428.871094 258.65625 428.375 257.183594 C 427.878906 255.714844 427.421875 254.230469 427 252.734375 C 426.582031 251.238281 426.203125 249.730469 425.863281 248.214844 C 425.527344 246.699219 425.226562 245.175781 424.96875 243.644531 C 424.707031 242.113281 424.492188 240.574219 424.3125 239.03125 C 424.132812 237.488281 423.996094 235.941406 423.902344 234.390625 C 423.804688 232.839844 423.75 231.289062 423.734375 229.734375 C 423.71875 228.179688 423.746094 226.628906 423.8125 225.078125 C 423.878906 223.523438 423.988281 221.976562 424.136719 220.429688 C 424.285156 218.882812 424.472656 217.339844 424.703125 215.804688 C 424.933594 214.269531 425.203125 212.738281 425.515625 211.21875 C 425.824219 209.695312 426.175781 208.183594 426.566406 206.679688 C 426.957031 205.175781 427.386719 203.683594 427.855469 202.203125 C 428.324219 200.71875 428.832031 199.253906 429.378906 197.796875 C 429.921875 196.34375 430.507812 194.90625 431.128906 193.480469 C 431.75 192.058594 432.410156 190.652344 433.105469 189.261719 C 433.804688 187.875 434.535156 186.503906 435.304688 185.15625 C 436.070312 183.804688 436.875 182.476562 437.714844 181.167969 C 438.550781 179.859375 439.421875 178.574219 440.328125 177.3125 C 441.234375 176.050781 442.175781 174.8125 443.144531 173.601562 C 444.117188 172.386719 445.117188 171.203125 446.152344 170.042969 C 447.1875 168.882812 448.25 167.75 449.34375 166.648438 C 450.4375 165.542969 451.558594 164.46875 452.707031 163.425781 C 453.859375 162.378906 455.035156 161.367188 456.238281 160.382812 C 457.441406 159.402344 458.667969 158.453125 459.921875 157.535156 C 461.175781 156.617188 462.453125 155.730469 463.753906 154.882812 C 465.050781 154.03125 466.375 153.214844 467.714844 152.433594 C 469.058594 151.652344 470.421875 150.90625 471.804688 150.199219 C 473.1875 149.488281 474.585938 148.816406 476.003906 148.179688 C 477.421875 147.546875 478.855469 146.949219 480.304688 146.386719 C 481.753906 145.828125 483.214844 145.308594 484.691406 144.824219 C 486.167969 144.339844 487.65625 143.898438 489.15625 143.492188 C 490.65625 143.089844 492.167969 142.722656 493.683594 142.398438 C 495.203125 142.074219 496.730469 141.789062 498.265625 141.546875 C 499.800781 141.300781 501.339844 141.097656 502.882812 140.933594 C 504.429688 140.769531 505.976562 140.648438 507.527344 140.566406 C 509.078125 140.484375 510.632812 140.441406 512.183594 140.441406 C 513.738281 140.441406 515.292969 140.484375 516.84375 140.566406 C 518.394531 140.648438 519.941406 140.769531 521.488281 140.933594 C 523.03125 141.097656 524.570312 141.300781 526.105469 141.546875 C 527.640625 141.789062 529.167969 142.074219 530.683594 142.398438 C 532.203125 142.722656 533.714844 143.089844 535.214844 143.492188 C 536.714844 143.898438 538.203125 144.339844 539.679688 144.824219 C 541.15625 145.308594 542.617188 145.828125 544.066406 146.386719 C 545.515625 146.949219 546.949219 147.546875 548.367188 148.179688 C 549.785156 148.816406 551.183594 149.488281 552.566406 150.199219 C 553.949219 150.90625 555.3125 151.652344 556.652344 152.433594 C 557.996094 153.214844 559.320312 154.03125 560.617188 154.882812 C 561.917969 155.730469 563.195312 156.617188 564.449219 157.535156 C 565.703125 158.453125 566.929688 159.402344 568.132812 160.382812 C 569.335938 161.367188 570.511719 162.378906 571.664062 163.425781 C 572.8125 164.46875 573.933594 165.542969 575.027344 166.648438 C 576.121094 167.75 577.183594 168.882812 578.21875 170.042969 C 579.25 171.203125 580.253906 172.386719 581.226562 173.601562 C 582.195312 174.8125 583.136719 176.050781 584.039062 177.3125 C 584.945312 178.574219 585.820312 179.859375 586.65625 181.167969 C 587.496094 182.476562 588.300781 183.804688 589.066406 185.15625 C 589.835938 186.503906 590.566406 187.875 591.261719 189.261719 C 591.960938 190.652344 592.617188 192.058594 593.242188 193.480469 C 593.863281 194.90625 594.445312 196.34375 594.992188 197.796875 C 595.539062 199.253906 596.046875 200.71875 596.515625 202.203125 C 596.984375 203.683594 597.414062 205.175781 597.804688 206.679688 C 598.195312 208.183594 598.542969 209.695312 598.855469 211.21875 C 599.164062 212.738281 599.4375 214.269531 599.667969 215.804688 C 599.894531 217.339844 600.085938 218.882812 600.234375 220.429688 C 600.382812 221.976562 600.492188 223.523438 600.558594 225.078125 C 600.625 226.628906 600.652344 228.179688 600.636719 229.734375 C 600.621094 231.289062 600.566406 232.839844 600.46875 234.390625 C 600.375 235.941406 600.234375 237.488281 600.058594 239.03125 C 599.878906 240.574219 599.660156 242.113281 599.402344 243.644531 C 599.144531 245.175781 598.84375 246.699219 598.503906 248.214844 C 598.167969 249.730469 597.789062 251.238281 597.367188 252.734375 C 596.949219 254.230469 596.492188 255.714844 595.996094 257.183594 C 595.5 258.65625 594.964844 260.113281 594.390625 261.558594 C 593.816406 263.003906 593.207031 264.429688 592.554688 265.839844 C 591.90625 267.253906 591.222656 268.648438 590.5 270.023438 C 589.777344 271.398438 589.019531 272.753906 588.226562 274.089844 C 587.433594 275.425781 586.605469 276.738281 585.742188 278.03125 C 584.878906 279.320312 583.980469 280.589844 583.050781 281.835938 C 582.121094 283.078125 581.160156 284.296875 580.167969 285.492188 C 579.171875 286.6875 578.148438 287.851562 577.09375 288.992188 C 576.039062 290.132812 574.953125 291.242188 573.839844 292.328125 C 572.726562 293.410156 571.582031 294.460938 570.414062 295.484375 C 569.246094 296.507812 568.050781 297.5 566.828125 298.457031 C 565.605469 299.417969 564.359375 300.34375 563.089844 301.238281 Z M 512.183594 168.554688 C 510.210938 168.554688 508.242188 168.652344 506.277344 168.847656 C 504.3125 169.039062 502.359375 169.328125 500.425781 169.714844 C 498.488281 170.097656 496.574219 170.578125 494.683594 171.152344 C 492.796875 171.726562 490.9375 172.390625 489.117188 173.144531 C 487.292969 173.898438 485.507812 174.742188 483.765625 175.675781 C 482.027344 176.605469 480.335938 177.617188 478.691406 178.714844 C 477.050781 179.8125 475.46875 180.988281 473.941406 182.238281 C 472.414062 183.492188 470.953125 184.816406 469.558594 186.210938 C 468.160156 187.609375 466.835938 189.070312 465.585938 190.597656 C 464.332031 192.121094 463.15625 193.707031 462.058594 195.347656 C 460.964844 196.988281 459.949219 198.679688 459.019531 200.421875 C 458.089844 202.164062 457.246094 203.945312 456.488281 205.769531 C 455.734375 207.59375 455.070312 209.453125 454.496094 211.339844 C 453.921875 213.230469 453.445312 215.144531 453.058594 217.078125 C 452.671875 219.015625 452.382812 220.964844 452.191406 222.929688 C 451.996094 224.898438 451.902344 226.867188 451.902344 228.839844 C 451.902344 230.816406 451.996094 232.785156 452.191406 234.75 C 452.382812 236.714844 452.671875 238.664062 453.058594 240.601562 C 453.445312 242.539062 453.921875 244.449219 454.496094 246.339844 C 455.070312 248.230469 455.734375 250.085938 456.488281 251.910156 C 457.246094 253.734375 458.089844 255.515625 459.019531 257.257812 C 459.949219 259 460.964844 260.691406 462.058594 262.332031 C 463.15625 263.976562 464.332031 265.558594 465.585938 267.085938 C 466.835938 268.609375 468.160156 270.070312 469.558594 271.46875 C 470.953125 272.863281 472.414062 274.1875 473.941406 275.441406 C 475.46875 276.695312 477.050781 277.867188 478.691406 278.964844 C 480.335938 280.0625 482.027344 281.078125 483.765625 282.007812 C 485.507812 282.9375 487.292969 283.78125 489.117188 284.535156 C 490.9375 285.292969 492.796875 285.957031 494.683594 286.53125 C 496.574219 287.101562 498.488281 287.582031 500.425781 287.96875 C 502.359375 288.351562 504.3125 288.640625 506.277344 288.835938 C 508.242188 289.027344 510.210938 289.125 512.183594 289.125 C 514.160156 289.125 516.128906 289.027344 518.09375 288.835938 C 520.058594 288.640625 522.011719 288.351562 523.945312 287.96875 C 525.882812 287.582031 527.796875 287.101562 529.683594 286.53125 C 531.574219 285.957031 533.429688 285.292969 535.253906 284.535156 C 537.078125 283.78125 538.863281 282.9375 540.601562 282.007812 C 542.34375 281.078125 544.035156 280.0625 545.675781 278.964844 C 547.320312 277.867188 548.902344 276.695312 550.429688 275.441406 C 551.957031 274.1875 553.417969 272.863281 554.8125 271.46875 C 556.210938 270.070312 557.535156 268.609375 558.785156 267.085938 C 560.039062 265.558594 561.214844 263.972656 562.308594 262.332031 C 563.40625 260.691406 564.421875 259 565.351562 257.257812 C 566.28125 255.515625 567.125 253.734375 567.882812 251.910156 C 568.636719 250.085938 569.300781 248.230469 569.875 246.339844 C 570.449219 244.449219 570.925781 242.539062 571.3125 240.601562 C 571.695312 238.664062 571.984375 236.714844 572.179688 234.75 C 572.375 232.785156 572.46875 230.816406 572.46875 228.839844 C 572.46875 226.867188 572.371094 224.898438 572.175781 222.933594 C 571.980469 220.96875 571.6875 219.019531 571.300781 217.082031 C 570.917969 215.148438 570.4375 213.234375 569.863281 211.347656 C 569.289062 209.457031 568.621094 207.601562 567.867188 205.78125 C 567.109375 203.957031 566.265625 202.175781 565.335938 200.433594 C 564.402344 198.691406 563.390625 197.003906 562.292969 195.363281 C 561.195312 193.71875 560.019531 192.136719 558.769531 190.613281 C 557.515625 189.085938 556.191406 187.625 554.796875 186.230469 C 553.402344 184.832031 551.941406 183.507812 550.414062 182.257812 C 548.890625 181.003906 547.304688 179.828125 545.664062 178.734375 C 544.023438 177.636719 542.332031 176.621094 540.59375 175.691406 C 538.851562 174.757812 537.070312 173.914062 535.246094 173.160156 C 533.421875 172.402344 531.566406 171.738281 529.679688 171.164062 C 527.789062 170.589844 525.878906 170.109375 523.941406 169.722656 C 522.007812 169.335938 520.058594 169.046875 518.09375 168.851562 C 516.128906 168.65625 514.160156 168.558594 512.183594 168.554688 Z M 512.183594 168.554688 " fill-opacity="1" fill-rule="nonzero"/></g></svg>