<svg xmlns="http://www.w3.org/2000/svg" xmlns:xlink="http://www.w3.org/1999/xlink" width="1366" zoomAndPan="magnify" viewBox="0 0 1024.5 576" height="768" preserveAspectRatio="xMidYMid meet" version="1.0"><defs><clipPath id="7e1b419a69"><path d="M 215.34375 52.484375 L 750.582031 52.484375 L 750.582031 575.859375 L 215.34375 575.859375 Z M 215.34375 52.484375 " clip-rule="nonzero"/></clipPath></defs><g clip-path="url(#7e1b419a69)"><path fill="#000000" d="M 482.960938 587.722656 C 478.582031 587.722656 474.203125 587.613281 469.832031 587.398438 C 465.457031 587.183594 461.089844 586.863281 456.730469 586.433594 C 452.371094 586.003906 448.027344 585.46875 443.695312 584.824219 C 439.363281 584.183594 435.046875 583.433594 430.75 582.578125 C 426.457031 581.726562 422.183594 580.765625 417.9375 579.703125 C 413.6875 578.636719 409.46875 577.46875 405.277344 576.199219 C 401.085938 574.925781 396.925781 573.554688 392.804688 572.078125 C 388.679688 570.601562 384.59375 569.027344 380.546875 567.351562 C 376.5 565.675781 372.5 563.898438 368.539062 562.027344 C 364.582031 560.15625 360.667969 558.1875 356.808594 556.121094 C 352.945312 554.058594 349.132812 551.898438 345.378906 549.648438 C 341.621094 547.394531 337.921875 545.054688 334.28125 542.621094 C 330.640625 540.1875 327.058594 537.664062 323.542969 535.054688 C 320.023438 532.445312 316.570312 529.753906 313.1875 526.976562 C 309.800781 524.195312 306.484375 521.335938 303.238281 518.394531 C 299.996094 515.453125 296.824219 512.433594 293.726562 509.335938 C 290.628906 506.242188 287.609375 503.070312 284.667969 499.824219 C 281.726562 496.578125 278.867188 493.265625 276.089844 489.878906 C 273.3125 486.492188 270.617188 483.039062 268.007812 479.523438 C 265.398438 476.003906 262.878906 472.425781 260.445312 468.785156 C 258.011719 465.140625 255.667969 461.441406 253.417969 457.6875 C 251.164062 453.929688 249.007812 450.121094 246.941406 446.257812 C 244.878906 442.394531 242.910156 438.484375 241.035156 434.523438 C 239.164062 430.566406 237.390625 426.5625 235.714844 422.515625 C 234.039062 418.46875 232.460938 414.382812 230.988281 410.261719 C 229.511719 406.136719 228.136719 401.980469 226.867188 397.789062 C 225.59375 393.597656 224.425781 389.375 223.363281 385.128906 C 222.296875 380.878906 221.339844 376.609375 220.484375 372.3125 C 219.628906 368.015625 218.882812 363.703125 218.238281 359.371094 C 217.597656 355.039062 217.058594 350.691406 216.632812 346.332031 C 216.203125 341.976562 215.878906 337.609375 215.664062 333.234375 C 215.449219 328.859375 215.34375 324.480469 215.34375 320.101562 C 215.34375 315.722656 215.449219 311.34375 215.664062 306.96875 C 215.878906 302.597656 216.203125 298.230469 216.632812 293.871094 C 217.058594 289.511719 217.597656 285.167969 218.238281 280.835938 C 218.882812 276.5 219.628906 272.1875 220.484375 267.890625 C 221.339844 263.597656 222.296875 259.324219 223.363281 255.074219 C 224.425781 250.828125 225.59375 246.609375 226.867188 242.417969 C 228.136719 238.226562 229.511719 234.066406 230.988281 229.945312 C 232.460938 225.820312 234.039062 221.734375 235.714844 217.6875 C 237.390625 213.640625 239.164062 209.640625 241.035156 205.679688 C 242.910156 201.722656 244.878906 197.808594 246.941406 193.945312 C 249.007812 190.085938 251.164062 186.273438 253.417969 182.519531 C 255.667969 178.761719 258.011719 175.0625 260.445312 171.421875 C 262.878906 167.777344 265.398438 164.199219 268.007812 160.679688 C 270.617188 157.164062 273.3125 153.710938 276.089844 150.328125 C 278.867188 146.941406 281.726562 143.625 284.667969 140.378906 C 287.609375 137.132812 290.628906 133.964844 293.726562 130.867188 C 296.824219 127.769531 299.996094 124.75 303.238281 121.808594 C 306.484375 118.867188 309.800781 116.007812 313.1875 113.230469 C 316.570312 110.449219 320.023438 107.757812 323.542969 105.148438 C 327.058594 102.539062 330.640625 100.019531 334.28125 97.585938 C 337.921875 95.152344 341.621094 92.808594 345.378906 90.558594 C 349.132812 88.304688 352.945312 86.148438 356.808594 84.082031 C 360.667969 82.019531 364.582031 80.050781 368.539062 78.175781 C 372.5 76.304688 376.5 74.53125 380.546875 72.855469 C 384.59375 71.179688 388.679688 69.601562 392.804688 68.125 C 396.925781 66.652344 401.085938 65.277344 405.277344 64.007812 C 409.46875 62.734375 413.6875 61.566406 417.9375 60.503906 C 422.183594 59.4375 426.457031 58.480469 430.75 57.625 C 435.046875 56.769531 439.363281 56.023438 443.695312 55.378906 C 448.027344 54.738281 452.371094 54.199219 456.730469 53.769531 C 461.089844 53.34375 465.457031 53.019531 469.832031 52.804688 C 474.203125 52.589844 478.582031 52.484375 482.960938 52.484375 C 487.339844 52.484375 491.71875 52.589844 496.09375 52.804688 C 500.46875 53.019531 504.835938 53.34375 509.191406 53.769531 C 513.550781 54.199219 517.898438 54.738281 522.230469 55.378906 C 526.5625 56.023438 530.875 56.769531 535.171875 57.625 C 539.46875 58.480469 543.738281 59.4375 547.988281 60.503906 C 552.238281 61.566406 556.457031 62.734375 560.648438 64.007812 C 564.839844 65.277344 568.996094 66.652344 573.121094 68.125 C 577.242188 69.601562 581.328125 71.179688 585.375 72.855469 C 589.421875 74.53125 593.425781 76.304688 597.382812 78.175781 C 601.34375 80.050781 605.253906 82.019531 609.117188 84.082031 C 612.980469 86.148438 616.789062 88.304688 620.546875 90.558594 C 624.300781 92.808594 628 95.152344 631.644531 97.585938 C 635.285156 100.019531 638.863281 102.539062 642.382812 105.148438 C 645.898438 107.757812 649.351562 110.449219 652.738281 113.230469 C 656.125 116.007812 659.4375 118.867188 662.683594 121.808594 C 665.929688 124.75 669.101562 127.769531 672.199219 130.867188 C 675.292969 133.964844 678.3125 137.132812 681.253906 140.378906 C 684.195312 143.625 687.054688 146.941406 689.835938 150.328125 C 692.613281 153.710938 695.308594 157.164062 697.914062 160.679688 C 700.523438 164.199219 703.046875 167.777344 705.480469 171.421875 C 707.914062 175.0625 710.253906 178.761719 712.507812 182.519531 C 714.757812 186.273438 716.917969 190.085938 718.980469 193.945312 C 721.046875 197.808594 723.015625 201.722656 724.886719 205.679688 C 726.757812 209.640625 728.535156 213.640625 730.210938 217.6875 C 731.886719 221.734375 733.460938 225.820312 734.9375 229.945312 C 736.414062 234.066406 737.785156 238.226562 739.058594 242.417969 C 740.328125 246.609375 741.496094 250.828125 742.5625 255.074219 C 743.625 259.324219 744.585938 263.597656 745.4375 267.890625 C 746.292969 272.1875 747.042969 276.5 747.683594 280.835938 C 748.328125 285.167969 748.863281 289.511719 749.292969 293.871094 C 749.722656 298.230469 750.042969 302.597656 750.257812 306.96875 C 750.472656 311.34375 750.582031 315.722656 750.582031 320.101562 C 750.574219 324.480469 750.464844 328.855469 750.246094 333.230469 C 750.023438 337.601562 749.699219 341.96875 749.265625 346.324219 C 748.832031 350.679688 748.289062 355.023438 747.644531 359.355469 C 746.996094 363.683594 746.246094 367.996094 745.386719 372.289062 C 744.53125 376.585938 743.566406 380.855469 742.5 385.101562 C 741.433594 389.347656 740.261719 393.5625 738.988281 397.753906 C 737.714844 401.941406 736.339844 406.097656 734.859375 410.21875 C 733.382812 414.339844 731.804688 418.421875 730.128906 422.46875 C 728.449219 426.511719 726.671875 430.511719 724.800781 434.46875 C 722.925781 438.425781 720.957031 442.335938 718.890625 446.195312 C 716.824219 450.054688 714.664062 453.863281 712.414062 457.617188 C 710.160156 461.375 707.816406 465.070312 705.382812 468.710938 C 702.949219 472.351562 700.429688 475.929688 697.820312 479.445312 C 695.210938 482.960938 692.519531 486.410156 689.738281 489.792969 C 686.960938 493.179688 684.101562 496.492188 681.160156 499.738281 C 678.222656 502.980469 675.203125 506.152344 672.105469 509.246094 C 669.011719 512.34375 665.839844 515.359375 662.597656 518.300781 C 659.351562 521.242188 656.039062 524.101562 652.65625 526.878906 C 649.269531 529.65625 645.820312 532.351562 642.304688 534.960938 C 638.789062 537.570312 635.210938 540.089844 631.570312 542.523438 C 627.929688 544.957031 624.234375 547.300781 620.476562 549.554688 C 616.722656 551.804688 612.914062 553.964844 609.054688 556.03125 C 605.195312 558.097656 601.285156 560.066406 597.328125 561.941406 C 593.371094 563.8125 589.371094 565.589844 585.328125 567.265625 C 581.28125 568.945312 577.199219 570.523438 573.078125 572 C 568.957031 573.476562 564.800781 574.855469 560.613281 576.128906 C 556.425781 577.402344 552.207031 578.574219 547.960938 579.640625 C 543.714844 580.707031 539.445312 581.671875 535.148438 582.527344 C 530.855469 583.386719 526.542969 584.136719 522.214844 584.785156 C 517.882812 585.429688 513.539062 585.972656 509.183594 586.40625 C 504.828125 586.839844 500.460938 587.164062 496.089844 587.382812 C 491.714844 587.605469 487.339844 587.714844 482.960938 587.722656 Z M 357.039062 523.71875 C 361.738281 526.628906 366.535156 529.371094 371.425781 531.949219 C 376.3125 534.527344 381.285156 536.933594 386.34375 539.167969 C 391.398438 541.398438 396.527344 543.457031 401.726562 545.332031 C 406.925781 547.210938 412.183594 548.90625 417.5 550.417969 C 422.816406 551.933594 428.179688 553.257812 433.589844 554.398438 C 438.996094 555.542969 444.441406 556.492188 449.914062 557.257812 C 455.390625 558.019531 460.882812 558.59375 466.398438 558.976562 C 471.914062 559.359375 477.433594 559.550781 482.960938 559.550781 C 488.488281 559.550781 494.011719 559.359375 499.523438 558.976562 C 505.039062 558.59375 510.535156 558.019531 516.007812 557.257812 C 521.484375 556.492188 526.925781 555.542969 532.335938 554.398438 C 537.742188 553.257812 543.105469 551.933594 548.421875 550.417969 C 553.738281 548.90625 558.996094 547.210938 564.195312 545.332031 C 569.394531 543.457031 574.523438 541.398438 579.578125 539.167969 C 584.636719 536.933594 589.609375 534.527344 594.5 531.949219 C 599.390625 529.371094 604.183594 526.628906 608.882812 523.71875 C 601.980469 488.703125 570.289062 358.695312 482.960938 358.695312 C 395.632812 358.695312 363.941406 488.703125 357.039062 523.71875 Z M 533.867188 342.636719 C 597.304688 374.894531 624.40625 463.773438 633.957031 505.886719 C 637.128906 503.308594 640.238281 500.648438 643.273438 497.910156 C 646.3125 495.171875 649.28125 492.355469 652.171875 489.464844 C 655.066406 486.574219 657.886719 483.613281 660.628906 480.578125 C 663.371094 477.542969 666.03125 474.441406 668.617188 471.269531 C 671.199219 468.097656 673.699219 464.863281 676.117188 461.5625 C 678.535156 458.261719 680.867188 454.902344 683.109375 451.484375 C 685.355469 448.066406 687.511719 444.589844 689.578125 441.0625 C 691.648438 437.53125 693.621094 433.953125 695.507812 430.320312 C 697.390625 426.691406 699.179688 423.015625 700.875 419.292969 C 702.570312 415.570312 704.167969 411.808594 705.671875 408.003906 C 707.171875 404.199219 708.578125 400.359375 709.882812 396.480469 C 711.1875 392.605469 712.394531 388.699219 713.5 384.761719 C 714.605469 380.820312 715.609375 376.859375 716.511719 372.867188 C 717.414062 368.878906 718.214844 364.867188 718.910156 360.839844 C 719.605469 356.808594 720.199219 352.761719 720.691406 348.703125 C 721.179688 344.640625 721.566406 340.570312 721.84375 336.488281 C 722.125 332.410156 722.304688 328.324219 722.375 324.234375 C 722.445312 320.144531 722.414062 316.054688 722.273438 311.96875 C 722.136719 307.878906 721.894531 303.796875 721.546875 299.722656 C 721.199219 295.644531 720.75 291.582031 720.191406 287.53125 C 719.636719 283.476562 718.980469 279.441406 718.214844 275.421875 C 717.453125 271.40625 716.589844 267.410156 715.621094 263.433594 C 714.65625 259.460938 713.585938 255.511719 712.417969 251.59375 C 711.25 247.671875 709.980469 243.785156 708.609375 239.933594 C 707.242188 236.078125 705.777344 232.261719 704.210938 228.480469 C 702.648438 224.703125 700.988281 220.964844 699.234375 217.269531 C 697.476562 213.574219 695.628906 209.929688 693.683594 206.328125 C 691.742188 202.730469 689.710938 199.183594 687.585938 195.6875 C 685.460938 192.191406 683.25 188.753906 680.949219 185.371094 C 678.648438 181.988281 676.261719 178.667969 673.789062 175.40625 C 671.320312 172.148438 668.769531 168.953125 666.132812 165.824219 C 663.5 162.695312 660.785156 159.636719 657.996094 156.648438 C 655.203125 153.65625 652.335938 150.742188 649.398438 147.898438 C 646.457031 145.054688 643.445312 142.289062 640.363281 139.601562 C 637.28125 136.910156 634.132812 134.304688 630.914062 131.777344 C 627.699219 129.25 624.421875 126.804688 621.078125 124.445312 C 617.738281 122.085938 614.339844 119.8125 610.878906 117.628906 C 607.421875 115.445312 603.910156 113.347656 600.347656 111.34375 C 596.78125 109.339844 593.167969 107.425781 589.503906 105.605469 C 585.839844 103.785156 582.132812 102.0625 578.382812 100.429688 C 574.628906 98.800781 570.839844 97.269531 567.011719 95.832031 C 563.179688 94.398438 559.316406 93.058594 555.417969 91.820312 C 551.519531 90.585938 547.589844 89.449219 543.632812 88.410156 C 539.675781 87.375 535.695312 86.441406 531.691406 85.609375 C 527.6875 84.777344 523.664062 84.046875 519.621094 83.417969 C 515.578125 82.792969 511.523438 82.269531 507.457031 81.851562 C 503.386719 81.433594 499.308594 81.121094 495.226562 80.910156 C 491.140625 80.703125 487.050781 80.597656 482.960938 80.597656 C 478.871094 80.597656 474.785156 80.703125 470.699219 80.910156 C 466.613281 81.121094 462.539062 81.433594 458.46875 81.851562 C 454.398438 82.269531 450.34375 82.792969 446.300781 83.417969 C 442.261719 84.046875 438.238281 84.777344 434.230469 85.609375 C 430.226562 86.441406 426.246094 87.375 422.289062 88.410156 C 418.332031 89.449219 414.40625 90.585938 410.507812 91.820312 C 406.609375 93.058594 402.742188 94.398438 398.914062 95.832031 C 395.082031 97.269531 391.292969 98.800781 387.542969 100.429688 C 383.789062 102.0625 380.082031 103.785156 376.417969 105.605469 C 372.757812 107.425781 369.140625 109.339844 365.578125 111.34375 C 362.011719 113.347656 358.5 115.445312 355.042969 117.628906 C 351.585938 119.8125 348.1875 122.085938 344.84375 124.445312 C 341.503906 126.804688 338.226562 129.25 335.007812 131.777344 C 331.792969 134.304688 328.644531 136.910156 325.5625 139.601562 C 322.480469 142.289062 319.46875 145.054688 316.527344 147.898438 C 313.585938 150.742188 310.71875 153.65625 307.929688 156.648438 C 305.136719 159.636719 302.425781 162.695312 299.789062 165.824219 C 297.15625 168.953125 294.601562 172.148438 292.132812 175.410156 C 289.660156 178.667969 287.277344 181.988281 284.976562 185.371094 C 282.675781 188.753906 280.464844 192.191406 278.339844 195.6875 C 276.214844 199.183594 274.179688 202.730469 272.238281 206.328125 C 270.296875 209.929688 268.445312 213.574219 266.691406 217.269531 C 264.9375 220.964844 263.277344 224.703125 261.710938 228.480469 C 260.148438 232.261719 258.679688 236.078125 257.3125 239.933594 C 255.945312 243.785156 254.675781 247.671875 253.507812 251.59375 C 252.335938 255.511719 251.269531 259.460938 250.300781 263.433594 C 249.335938 267.410156 248.46875 271.40625 247.707031 275.421875 C 246.945312 279.441406 246.285156 283.476562 245.730469 287.53125 C 245.175781 291.582031 244.722656 295.644531 244.378906 299.722656 C 244.03125 303.796875 243.789062 307.878906 243.648438 311.96875 C 243.511719 316.054688 243.476562 320.144531 243.550781 324.234375 C 243.621094 328.324219 243.796875 332.410156 244.078125 336.488281 C 244.359375 340.570312 244.746094 344.640625 245.234375 348.703125 C 245.722656 352.761719 246.316406 356.808594 247.011719 360.839844 C 247.710938 364.867188 248.507812 368.878906 249.410156 372.867188 C 250.3125 376.859375 251.316406 380.820312 252.421875 384.761719 C 253.527344 388.699219 254.734375 392.605469 256.039062 396.480469 C 257.347656 400.359375 258.75 404.199219 260.253906 408.003906 C 261.753906 411.808594 263.355469 415.570312 265.050781 419.292969 C 266.746094 423.015625 268.535156 426.691406 270.417969 430.320312 C 272.300781 433.953125 274.277344 437.53125 276.34375 441.0625 C 278.410156 444.589844 280.566406 448.066406 282.8125 451.484375 C 285.058594 454.902344 287.390625 458.261719 289.808594 461.5625 C 292.222656 464.863281 294.726562 468.097656 297.308594 471.269531 C 299.890625 474.441406 302.554688 477.542969 305.296875 480.578125 C 308.039062 483.613281 310.855469 486.574219 313.75 489.464844 C 316.644531 492.355469 319.609375 495.171875 322.648438 497.910156 C 325.6875 500.648438 328.792969 503.308594 331.96875 505.886719 C 341.519531 463.855469 368.589844 374.894531 432.058594 342.636719 C 430.789062 341.746094 429.542969 340.816406 428.320312 339.859375 C 427.097656 338.898438 425.902344 337.90625 424.734375 336.882812 C 423.5625 335.863281 422.421875 334.808594 421.308594 333.726562 C 420.195312 332.644531 419.109375 331.53125 418.054688 330.390625 C 417 329.253906 415.972656 328.085938 414.980469 326.890625 C 413.984375 325.699219 413.023438 324.476562 412.09375 323.234375 C 411.164062 321.988281 410.269531 320.722656 409.40625 319.429688 C 408.542969 318.136719 407.714844 316.824219 406.921875 315.488281 C 406.128906 314.152344 405.371094 312.796875 404.648438 311.421875 C 403.925781 310.046875 403.238281 308.652344 402.589844 307.242188 C 401.941406 305.832031 401.332031 304.402344 400.757812 302.957031 C 400.183594 301.515625 399.648438 300.058594 399.152344 298.585938 C 398.65625 297.113281 398.195312 295.628906 397.777344 294.132812 C 397.359375 292.636719 396.980469 291.132812 396.640625 289.617188 C 396.300781 288.097656 396.003906 286.574219 395.746094 285.042969 C 395.484375 283.511719 395.265625 281.972656 395.089844 280.429688 C 394.910156 278.886719 394.773438 277.339844 394.675781 275.789062 C 394.582031 274.238281 394.523438 272.6875 394.511719 271.136719 C 394.496094 269.582031 394.523438 268.027344 394.589844 266.476562 C 394.65625 264.925781 394.765625 263.375 394.914062 261.828125 C 395.0625 260.28125 395.25 258.742188 395.480469 257.203125 C 395.710938 255.667969 395.980469 254.140625 396.292969 252.617188 C 396.601562 251.09375 396.953125 249.582031 397.34375 248.078125 C 397.734375 246.574219 398.164062 245.082031 398.632812 243.601562 C 399.101562 242.121094 399.609375 240.652344 400.152344 239.199219 C 400.699219 237.742188 401.285156 236.304688 401.90625 234.882812 C 402.527344 233.457031 403.1875 232.050781 403.882812 230.664062 C 404.578125 229.273438 405.3125 227.90625 406.078125 226.554688 C 406.847656 225.203125 407.652344 223.875 408.488281 222.566406 C 409.328125 221.257812 410.199219 219.972656 411.105469 218.710938 C 412.011719 217.449219 412.949219 216.214844 413.921875 215 C 414.894531 213.789062 415.894531 212.601562 416.929688 211.441406 C 417.960938 210.28125 419.027344 209.152344 420.121094 208.046875 C 421.210938 206.945312 422.335938 205.871094 423.484375 204.824219 C 424.632812 203.78125 425.8125 202.765625 427.015625 201.785156 C 428.21875 200.800781 429.445312 199.851562 430.699219 198.933594 C 431.953125 198.015625 433.230469 197.132812 434.527344 196.28125 C 435.828125 195.429688 437.148438 194.613281 438.492188 193.832031 C 439.835938 193.050781 441.199219 192.308594 442.582031 191.597656 C 443.960938 190.890625 445.363281 190.21875 446.78125 189.582031 C 448.199219 188.945312 449.632812 188.347656 451.082031 187.789062 C 452.527344 187.226562 453.992188 186.707031 455.46875 186.222656 C 456.945312 185.742188 458.433594 185.296875 459.933594 184.894531 C 461.433594 184.488281 462.941406 184.125 464.460938 183.800781 C 465.980469 183.472656 467.507812 183.191406 469.042969 182.945312 C 470.574219 182.699219 472.117188 182.496094 473.660156 182.332031 C 475.207031 182.171875 476.753906 182.046875 478.304688 181.964844 C 479.855469 181.882812 481.410156 181.84375 482.960938 181.84375 C 484.515625 181.84375 486.066406 181.882812 487.617188 181.964844 C 489.171875 182.046875 490.71875 182.171875 492.261719 182.332031 C 493.808594 182.496094 495.347656 182.699219 496.882812 182.945312 C 498.417969 183.191406 499.941406 183.472656 501.460938 183.800781 C 502.980469 184.125 504.492188 184.488281 505.992188 184.894531 C 507.492188 185.296875 508.980469 185.742188 510.453125 186.222656 C 511.929688 186.707031 513.394531 187.226562 514.84375 187.789062 C 516.292969 188.347656 517.726562 188.945312 519.144531 189.582031 C 520.5625 190.21875 521.960938 190.890625 523.34375 191.597656 C 524.726562 192.308594 526.085938 193.050781 527.429688 193.832031 C 528.773438 194.613281 530.09375 195.429688 531.394531 196.28125 C 532.695312 197.132812 533.972656 198.015625 535.226562 198.933594 C 536.476562 199.851562 537.707031 200.800781 538.910156 201.785156 C 540.113281 202.765625 541.289062 203.78125 542.441406 204.824219 C 543.589844 205.871094 544.710938 206.945312 545.804688 208.046875 C 546.898438 209.152344 547.960938 210.28125 548.996094 211.441406 C 550.027344 212.601562 551.03125 213.789062 552 215 C 552.972656 216.214844 553.910156 217.449219 554.816406 218.710938 C 555.722656 219.972656 556.59375 221.257812 557.433594 222.566406 C 558.273438 223.875 559.074219 225.203125 559.84375 226.554688 C 560.613281 227.90625 561.34375 229.273438 562.039062 230.664062 C 562.734375 232.050781 563.394531 233.457031 564.015625 234.882812 C 564.640625 236.304688 565.222656 237.742188 565.769531 239.199219 C 566.316406 240.652344 566.824219 242.121094 567.292969 243.601562 C 567.761719 245.082031 568.191406 246.574219 568.582031 248.078125 C 568.972656 249.582031 569.320312 251.09375 569.632812 252.617188 C 569.941406 254.140625 570.210938 255.667969 570.441406 257.203125 C 570.671875 258.742188 570.863281 260.28125 571.011719 261.828125 C 571.160156 263.375 571.265625 264.925781 571.335938 266.476562 C 571.402344 268.027344 571.429688 269.582031 571.414062 271.136719 C 571.398438 272.6875 571.34375 274.238281 571.246094 275.789062 C 571.148438 277.339844 571.011719 278.886719 570.835938 280.429688 C 570.65625 281.972656 570.4375 283.511719 570.179688 285.042969 C 569.921875 286.574219 569.621094 288.097656 569.28125 289.617188 C 568.941406 291.132812 568.5625 292.636719 568.144531 294.132812 C 567.726562 295.628906 567.269531 297.113281 566.773438 298.585938 C 566.277344 300.058594 565.742188 301.515625 565.167969 302.957031 C 564.59375 304.402344 563.980469 305.832031 563.332031 307.242188 C 562.683594 308.652344 562 310.046875 561.277344 311.421875 C 560.554688 312.796875 559.796875 314.152344 559.003906 315.488281 C 558.207031 316.824219 557.378906 318.136719 556.519531 319.429688 C 555.65625 320.722656 554.757812 321.988281 553.828125 323.234375 C 552.898438 324.476562 551.9375 325.699219 550.945312 326.890625 C 549.949219 328.085938 548.925781 329.253906 547.871094 330.390625 C 546.8125 331.53125 545.730469 332.644531 544.617188 333.726562 C 543.5 334.808594 542.359375 335.863281 541.191406 336.882812 C 540.019531 337.90625 538.824219 338.898438 537.605469 339.859375 C 536.382812 340.816406 535.136719 341.746094 533.867188 342.636719 Z M 482.960938 209.957031 C 480.988281 209.957031 479.019531 210.050781 477.054688 210.246094 C 475.089844 210.441406 473.136719 210.730469 471.199219 211.113281 C 469.265625 211.5 467.351562 211.976562 465.460938 212.550781 C 463.574219 213.125 461.714844 213.789062 459.890625 214.542969 C 458.066406 215.300781 456.285156 216.144531 454.542969 217.074219 C 452.800781 218.003906 451.109375 219.019531 449.46875 220.117188 C 447.828125 221.210938 446.242188 222.386719 444.71875 223.640625 C 443.191406 224.890625 441.730469 226.214844 440.335938 227.613281 C 438.9375 229.007812 437.613281 230.46875 436.359375 231.996094 C 435.109375 233.523438 433.933594 235.105469 432.835938 236.746094 C 431.738281 238.390625 430.726562 240.082031 429.796875 241.824219 C 428.863281 243.5625 428.023438 245.347656 427.265625 247.171875 C 426.511719 248.996094 425.847656 250.851562 425.273438 252.742188 C 424.699219 254.628906 424.21875 256.542969 423.835938 258.480469 C 423.449219 260.414062 423.160156 262.367188 422.96875 264.332031 C 422.773438 266.296875 422.675781 268.265625 422.675781 270.242188 C 422.675781 272.214844 422.773438 274.183594 422.96875 276.148438 C 423.160156 278.113281 423.449219 280.066406 423.835938 282 C 424.21875 283.9375 424.699219 285.851562 425.273438 287.738281 C 425.847656 289.628906 426.511719 291.484375 427.265625 293.308594 C 428.023438 295.132812 428.863281 296.917969 429.796875 298.660156 C 430.726562 300.398438 431.738281 302.089844 432.835938 303.734375 C 433.933594 305.375 435.109375 306.957031 436.359375 308.484375 C 437.613281 310.011719 438.9375 311.472656 440.335938 312.867188 C 441.730469 314.265625 443.191406 315.589844 444.71875 316.839844 C 446.242188 318.09375 447.828125 319.269531 449.46875 320.367188 C 451.109375 321.460938 452.800781 322.476562 454.542969 323.40625 C 456.285156 324.335938 458.066406 325.179688 459.890625 325.9375 C 461.714844 326.691406 463.574219 327.355469 465.460938 327.929688 C 467.351562 328.503906 469.265625 328.980469 471.199219 329.367188 C 473.136719 329.753906 475.089844 330.042969 477.054688 330.234375 C 479.019531 330.429688 480.988281 330.523438 482.960938 330.523438 C 484.9375 330.523438 486.90625 330.429688 488.871094 330.234375 C 490.835938 330.042969 492.785156 329.753906 494.722656 329.367188 C 496.660156 328.980469 498.570312 328.503906 500.460938 327.929688 C 502.351562 327.355469 504.207031 326.691406 506.03125 325.9375 C 507.855469 325.179688 509.636719 324.335938 511.378906 323.40625 C 513.121094 322.476562 514.8125 321.460938 516.453125 320.367188 C 518.097656 319.269531 519.679688 318.09375 521.207031 316.839844 C 522.730469 315.589844 524.195312 314.265625 525.589844 312.867188 C 526.984375 311.472656 528.308594 310.011719 529.5625 308.484375 C 530.816406 306.957031 531.988281 305.375 533.085938 303.734375 C 534.183594 302.089844 535.199219 300.398438 536.128906 298.660156 C 537.058594 296.917969 537.902344 295.132812 538.65625 293.308594 C 539.414062 291.484375 540.078125 289.628906 540.652344 287.738281 C 541.222656 285.851562 541.703125 283.9375 542.089844 282 C 542.472656 280.066406 542.761719 278.113281 542.957031 276.148438 C 543.148438 274.183594 543.246094 272.214844 543.246094 270.242188 C 543.246094 268.265625 543.144531 266.296875 542.953125 264.332031 C 542.757812 262.367188 542.464844 260.417969 542.078125 258.484375 C 541.691406 256.546875 541.210938 254.636719 540.636719 252.746094 C 540.0625 250.859375 539.398438 249.003906 538.644531 247.179688 C 537.886719 245.355469 537.042969 243.574219 536.113281 241.832031 C 535.179688 240.09375 534.167969 238.402344 533.070312 236.761719 C 531.972656 235.121094 530.796875 233.535156 529.546875 232.011719 C 528.292969 230.484375 526.96875 229.023438 525.574219 227.628906 C 524.175781 226.234375 522.714844 224.910156 521.191406 223.65625 C 519.664062 222.40625 518.082031 221.230469 516.441406 220.132812 C 514.800781 219.035156 513.109375 218.023438 511.367188 217.089844 C 509.628906 216.160156 507.847656 215.316406 506.023438 214.558594 C 504.199219 213.804688 502.34375 213.136719 500.457031 212.5625 C 498.566406 211.988281 496.65625 211.511719 494.71875 211.125 C 492.785156 210.738281 490.832031 210.445312 488.867188 210.25 C 486.90625 210.054688 484.9375 209.957031 482.960938 209.957031 Z M 482.960938 209.957031 " fill-opacity="1" fill-rule="nonzero"/></g></svg>