<svg xmlns="http://www.w3.org/2000/svg" xmlns:xlink="http://www.w3.org/1999/xlink" width="1366" zoomAndPan="magnify" viewBox="0 0 1024.5 576" height="768" preserveAspectRatio="xMidYMid meet" version="1.0"><defs><clipPath id="ef50e48d8a"><path d="M 0 0.140625 L 1024 0.140625 L 1024 575.859375 L 0 575.859375 Z M 0 0.140625 " clip-rule="nonzero"/></clipPath><clipPath id="c4ee3de71b"><path d="M 411 28.925781 L 629 28.925781 L 629 154 L 411 154 Z M 411 28.925781 " clip-rule="nonzero"/></clipPath></defs><g clip-path="url(#ef50e48d8a)"><path fill="#ffffff" d="M 0 0.140625 L 1024 0.140625 L 1024 575.859375 L 0 575.859375 Z M 0 0.140625 " fill-opacity="1" fill-rule="nonzero"/><path fill="#ffffff" d="M 0 0.140625 L 1024 0.140625 L 1024 575.859375 L 0 575.859375 Z M 0 0.140625 " fill-opacity="1" fill-rule="nonzero"/></g><path fill="#292929" d="M 801.578125 519.09375 C 614 519.09375 426.417969 519.09375 238.839844 519.09375 C 242.902344 523.15625 246.964844 527.214844 251.027344 531.28125 C 251.027344 404 251.027344 276.722656 251.027344 149.441406 C 246.964844 153.5 242.902344 157.5625 238.839844 161.625 C 426.417969 161.625 614 161.625 801.578125 161.625 C 797.515625 157.5625 793.453125 153.5 789.394531 149.441406 C 789.394531 276.722656 789.394531 403.996094 789.394531 531.28125 C 789.394531 546.996094 813.765625 546.996094 813.765625 531.28125 C 813.765625 404 813.765625 276.722656 813.765625 149.441406 C 813.765625 142.800781 808.21875 137.253906 801.578125 137.253906 C 614 137.253906 426.417969 137.253906 238.839844 137.253906 C 232.199219 137.253906 226.652344 142.800781 226.652344 149.441406 C 226.652344 276.722656 226.652344 404 226.652344 531.285156 C 226.652344 537.921875 232.199219 543.46875 238.839844 543.46875 C 426.417969 543.46875 614 543.46875 801.578125 543.46875 C 817.296875 543.46875 817.296875 519.09375 801.578125 519.09375 Z M 801.578125 519.09375 " fill-opacity="1" fill-rule="nonzero"/><path fill="#292929" d="M 391.78125 289.585938 C 342.71875 289.585938 293.65625 289.585938 244.589844 289.585938 C 240.339844 289.585938 240.339844 313.957031 244.589844 313.957031 C 293.65625 313.957031 342.71875 313.957031 391.78125 313.957031 C 396.03125 313.957031 396.03125 289.585938 391.78125 289.585938 Z M 391.78125 289.585938 " fill-opacity="1" fill-rule="nonzero"/><path fill="#292929" d="M 440.859375 366.902344 L 375.597656 366.902344 L 375.597656 250.421875 L 440.859375 250.421875 Z M 401.585938 340.910156 L 414.871094 340.910156 L 414.871094 276.414062 L 401.585938 276.414062 Z M 401.585938 340.910156 " fill-opacity="1" fill-rule="nonzero"/><path fill="#292929" d="M 668.339844 366.902344 L 603.074219 366.902344 L 603.074219 250.421875 L 668.339844 250.421875 Z M 629.066406 340.910156 L 642.347656 340.910156 L 642.347656 276.414062 L 629.066406 276.414062 Z M 629.066406 340.910156 " fill-opacity="1" fill-rule="nonzero"/><g clip-path="url(#c4ee3de71b)"><path fill="#292929" d="M 435.988281 141.316406 C 435.988281 107.914062 435.988281 74.515625 435.988281 41.113281 C 431.925781 45.175781 427.863281 49.238281 423.804688 53.296875 C 487.890625 53.296875 551.992188 53.296875 616.082031 53.296875 C 612.015625 49.238281 607.957031 45.175781 603.890625 41.113281 C 603.890625 74.515625 603.890625 107.914062 603.890625 141.316406 C 603.890625 157.035156 628.265625 157.035156 628.265625 141.316406 C 628.265625 107.914062 628.265625 74.515625 628.265625 41.113281 C 628.265625 34.472656 622.71875 28.925781 616.082031 28.925781 C 551.988281 28.925781 487.890625 28.925781 423.804688 28.925781 C 417.160156 28.925781 411.613281 34.472656 411.613281 41.113281 C 411.613281 74.515625 411.613281 107.914062 411.613281 141.316406 C 411.613281 157.035156 435.988281 157.035156 435.988281 141.316406 Z M 435.988281 141.316406 " fill-opacity="1" fill-rule="nonzero"/></g><path fill="#292929" d="M 617.949219 289.585938 C 556.058594 289.585938 494.175781 289.585938 432.28125 289.585938 C 426.917969 289.585938 426.917969 313.957031 432.28125 313.957031 C 494.175781 313.957031 556.058594 313.957031 617.949219 313.957031 C 623.3125 313.957031 623.3125 289.585938 617.949219 289.585938 Z M 617.949219 289.585938 " fill-opacity="1" fill-rule="nonzero"/><path fill="#292929" d="M 805.652344 289.585938 C 756.738281 289.585938 707.835938 289.585938 658.921875 289.585938 C 654.675781 289.585938 654.675781 313.957031 658.921875 313.957031 C 707.835938 313.957031 756.738281 313.957031 805.652344 313.957031 C 809.890625 313.957031 809.890625 289.585938 805.652344 289.585938 Z M 805.652344 289.585938 " fill-opacity="1" fill-rule="nonzero"/></svg>