<svg xmlns="http://www.w3.org/2000/svg" xmlns:xlink="http://www.w3.org/1999/xlink" width="1366" zoomAndPan="magnify" viewBox="0 0 1024.5 576" height="768" preserveAspectRatio="xMidYMid meet" version="1.0"><defs><clipPath id="abee8abee3"><path d="M 124 25 L 901 25 L 901 551.625 L 124 551.625 Z M 124 25 " clip-rule="nonzero"/></clipPath></defs><g clip-path="url(#abee8abee3)"><path fill="#ff0000" d="M 288.886719 25.773438 C 148.761719 25.773438 134.566406 99.136719 127.609375 193.492188 C 122.875 257.742188 124.394531 321.203125 127.609375 385.269531 C 132.355469 479.761719 148.761719 552.988281 288.886719 552.988281 C 438.125 552.988281 587.367188 552.988281 736.605469 552.988281 C 876.730469 552.988281 890.929688 479.628906 897.882812 385.269531 C 902.621094 321.019531 901.101562 257.5625 897.882812 193.492188 C 893.140625 99 876.730469 25.773438 736.605469 25.773438 C 587.367188 25.773438 438.125 25.773438 288.886719 25.773438 Z M 288.886719 25.773438 " fill-opacity="1" fill-rule="nonzero"/></g><path fill="#ffffff" d="M 438.300781 402.671875 L 633.550781 290.761719 L 438.300781 178.847656 Z M 438.300781 402.671875 " fill-opacity="1" fill-rule="nonzero"/></svg>